<svg xmlns="http://www.w3.org/2000/svg" width="563" height="567"><path fill="#e03131" d="m59 512-8-1q-8-2-12-1l-6 2-3 1-3 2-3 2-3 2-2 2-1 1h-2v-2l1-1h1v1h1v1h-1v1h-1q-1 0 0 0l-1-1v-1l2-3 3-4 3-2 4-2 4-2 8-2 12 2 8 2 1 1v1l-1 1z"/><path fill="#e03131" d="m47 510-1-1-4-1h-5l-6 1-4 2q-2 0-3 2l-4 2-3 3q-1 2-3 2l-1 4 2 6 3 3 4 2 4 3 4 1 5 2 9 3 9 3 4 1h13v2l-1 1h-1v-1h-1v-1h1v-1h1l1 1q0 1 0 0t0 1h-1v1l-5 1h-7l-5-1-9-2-9-3-6-2-5-2-4-2-4-3q-3-1-5-5-3-4-2-10t2-7l3-2 4-3 4-2 4-3 5-1 7-1 6 1 4 1 2 2 1 1-1 1q-1 0 0 0v1z"/><path fill="#e03131" d="M35 547h2l3 1h24l10-1 15-1h79l9-1h12l1 1v2h-2l-1-1v-1h1v-1h1v1h1v1l-1 1-4 1-7 1-10 1H74l-10 1H46l-6-1h-4l-2-1-1-1q0-1 0 0v-1q0-1 0 0l1-1q0-1 0 0z"/><path fill="#e03131" d="M66 554h2l9-1 20-1h75l13 1h34l11-1h18l6-1 6-1h4l2-1 1-1h2l1 1 1 1v2h-1v1h-1l-4-1-5-1v-1h-1v-1h1v-1h1l1 1v1h-1v1h-1q-1 0 0 0v-1h-1v-1h1v-1q0-1 0 0h9l1 1 1 1v2h-1v1h-1v1h-1l-3 1-5 1-5 1h-7l-8 1h-68l-13-1H78l-10 1h-3l-1-1v-2q0-1 0 0h1z"/><path fill="#e03131" d="M130 552h8l13-1h21l17-1h17l22-1 23-1 16-1 15-1 14-1 13-1h13l11-1 9-1h9l8-1 3-1h1q0 1 0 0t1 0v1h1v3l-1 1h-1l-3-1-3-1h-1v-1q0-1 0 0v-1h2l1 1-1 1h-2v-2h2l2-1h3q1 0 0 0t1 0v1h1v3l-1 1h-1q0 1 0 0v1l-4 1h-7l-10 1-9 1h-11l-12 1-14 1-14 1h-15l-16 1-23 1h-22l-17 1h-56l-3 1v-1h-1q-1 1 0 0v-1q-1 0 0 0t0-1z"/><path fill="#e03131" d="M235 552h-2l-2 2h-2q-1 0 0 0t-1 0v-3h1l4 1 7 1h80l16 1h16l15-1h29l13-1 16-2 14-1 8-1 5-1h6v1h1v4h-1v1h-1l-2-1-5-1h-25v-1h-1q-1 0 0 0t0-1v-1h1q1 1 0 0h1v1h1q1 0 0 0v1h-1v1h-1l-1-1v-2h7l10-1h17v1h1v4h-1v1h-5l-5 1-8 1-15 1-15 2-14 1h-60l-16-1h-17l-22-1h-31l-10-1-7-1-3-1h-1q-1 1 0 0t-1 0v-3h1v-1l3-1 2-1h1v1h1v2q0 1 0 0z"/><path fill="#e03131" d="M347 551h51l11-1h33l10-1h18l10-1 9-1 5-1h6v1h1v4l-1 1h-1l-1-1-3-2-1-1h-1v-2h2l1 1-1 1h-2v-2h5l1 1-1-1h2v1h1v4l-1 1h-2l-3 1h-5l-9 1-10 1h-19l-10 1-11-1h-76l-5-1h-5v-2z"/><path fill="#e03131" d="m427 549 3 1h23l12-2 13-1 8-1 8-1h6l5-1 5-2h8l3-1h4v1h1v1l1 1v1h-1v1h-1v1h-3l-6-1h-4v-1h-1v-1h1v-1h1v1h1v1l-1 1h-1v-1h-1v-1h1v-1h1l3-1 6-1h3v1h1v1l1 1v1h-1v1h-1v1h-6l-4 1h-4l-5 1-5 1h-7l-7 1-9 1-12 1-13 1-8 1-8-1-7-1-4-1-1-1v-1h1z"/><path fill="#e03131" d="M481 548h20l7-1 6-1 5-1 4-1 6-1 5-2 4-1 2-2 1-3v-3l-1-3-2-1q-1 0 0 0l-1-1q-1 0 0 0t0-1h1q1 0 0 0v-1h1v1h1v1l-1 1h-1v-1h-1v-1h1v-1h1l3 1 4 1 1 3v2l1 4q1 3-1 3l-2 3-2 2-3 1-4 1-6 2-5 1-5 1-6 1h-6l-7 1h-17l-3-1h-1v-2z"/><path fill="#e03131" d="M524 541h3l5-1 4-1 3-1 2-1 2-2 2-2 1-2 1-2 1-5 1-5v-4l-1-3v-3l-1-2-2-1-3-1h-8l-4 1h-3q-1 0 0 0l-1-1v-1h1v-1h1v1h1v1l-1 1h-2v-2h1l2-2 4-3 6-1 4 1h3l3 1 3 2 2 3v3l1 3 1 5-1 4-1 6q0 4-2 6l-1 3-2 2-3 3-2 1-3 2-4 1h-4l-6 1h-5v-3h1z"/><path fill="#e03131" d="m550 508-1-1-5-1-8-2-9-2-6-1-6-1-6-2-5-1-4-1h-3l-3-1-1-1-1 1-1-1q-1-1 0 0v-1q0-1 0 0t0-1h1q1 0 0 0h1v2l-1 1-1-1v-1l2-2 4-1h4l4 1 5 2 6 1 6 1 7 1 9 3 8 2 5 3h1v1h1v2h-1v1z"/><path fill="#e03131" d="m536 500-2-1-6-1-8-1h-18l-3-1h-3v-1h-1v-1h1v-1h1v1h1v1l-1 1h-1v-1h-1v-1h1v-1h1l1-1 4-1h12l7 1 8 1 7 2 2 1 1 1v2l-1 1zm-506 4 4-2 11-2 15-1h52l4 1h7v1h1v1l1 1h-1v1l-1 1q-1 0 0 0t-1 0-2 0l-4 1h-7q-5 0-8 2l-14 1-18 1H58l-9 1h-6l-2-1h-1v-1h-2v-2l1-1h1l6-2 11-2 11-1 13-1 13-1 11-1 6-1h6v1h1v1l-1 1q-1 0 0 0v1H75l-12-1H49v-1h-1v-2h1v-1h1l4 1h3v1h1v1l-1 1h-1v-1h-1v-1h1v-1h1v1h1v2h-9v-1h-1v-2h1v-1h7l7 1h54v1h1v1l-1 1q-1 0 0 0v1h-3l-3 1h-6l-11 1-12 1-13 1-12 1-9 1-6 2-2 1v-1h-2v-2l1-1h2l2 1h6l9-1h11l18-1 13-2 9-1 7-1 4-1h3v1h1v1l1 1h-1v1l-1 1h-16l-7-1H46l-11 2-4 1h-2v-3zM269 27h-8l-1-1h-1v-2h1v-1h1q1 0 0 0l2-1 4-1 5-2 5-1h3l3 1 2 1 3 1q2 0 3 2t2 2l1 1v1l-1 1v1q1 1 0 0h-3l-1-1v-2q1-2 2 0l-1 1h-3l-3 1h-8l-3 1h-16v1l-1-1h-1q-1 0 0 0t0-1v-2l1-1h2l3-1 4-1h4l4-1h11l5 1h3l4 1 3 1 3 2 1 3v3l-3 2-4 1h-2q-2-1 0-3l1-1h-1v-1h-1v-1h1v-1 1-1h1v1h1v2h-2v-1h-1v-1h1v-1h1q1 0 0 0t0 1 1 0v1h-1v1h-1v-1h-1v-1h1v-1l1 1q0 2 2 1t0-1-2-1l-3-1h-8l-5-1h-5zh-8l-3 1h-2v1l-1-1h-1q-1 0 0 0t0-1v-2l1-1h16l3-1h6l3-1h8l2 1-1 3q-1 1 0 0l1-1v1l-1 1v1q1 1 0 0h-3l-1-1q0-1 0 0t-1-1l-2-1-3-2h-3l-3-1q-2-1-4 1h-4l-3 2-3 1h-2l-1-1h-1v-2h1v-1h1q1 0 0 0h2l3 1 3 1h1q1 0 0 0v2zm-15 10v2h-3v-3h3q1 0 0 0z"/><path fill="#e03131" d="m255 30-10 8q-10 8-14 15t-5 9l-3 6-1 5-1 4v4l-1 5v6l1 2v1h-1v1h-2v-2h1v-1h1v1h1v1l-1 1h-2v-1l-2-3-2-6v-5l1-5 1-5 2-6 2-6 6-10q5-7 16-15l11-8h3v1q0 1 0 0t0 1v2z"/><path fill="#e03131" d="m247 32-2 1q-2 0-3 2l-4 3-5 5-5 6-4 6-4 5-2 6-2 8-1 9-1 6v4l-1 5-1 4-1 3v1h-2v-2l1-1 1 1v2h-2v-1l-1-3V88l1-6 2-9 2-9 3-6 3-6 5-7 5-5 6-5 5-4 4-2 2-1h1q1 0 0 0v1h1v2z"/><path fill="#e03131" d="m233 54-2 1-4 4-3 7-4 9-2 8-1 8-1 7-1 6v30h-2v-2l1-1 1 1v2h-2q-1 0 0 0v-1l-2-2-1-6-1-5v-16l1-7 1-8 1-7 3-9 4-10 5-7 4-4 2-2h3v3zm63-23 12 5q12 5 17 10l6 10 1 6 1 5v15l-2 4-1 1 1 1v2h-2v-2l1-1 1 1v2h-1l-2-3q-2-3-1-6t0-4v-9l-1-4-1-6-4-7q-4-5-15-11l-12-5v-1h-1v-2l1-1h1q0-1 0 0z"/><path fill="#e03131" d="m309 26 3 2 5 4 5 5q3 3 4 7l7 11 6 12 3 7 3 7 3 5 2 5 2 5 1 4 1 3-1 5v4h-1l-1 1v-1h-1v-1l1-1h1v1h1v1h-1v1h-1l-1-1q-1 0 0 0v-1l-1-3-2-6-1-4-2-4-2-5-3-6-3-6-3-8-6-11-5-11-5-6-4-5-4-4-3-2v-3l1-1z"/><path fill="#e03131" d="m340 78 1 2q2 2 2 5l2 7 2 9 1 8v7l-1 6-1 4q0 2-2 3l-1 2v1h-2v-2l1-1 1 1v2q0 1 0 0h-2v-1l-1-2-1-4 1-4 1-5v-14l-1-8-2-7-1-5-1-3q0-1 0 0v-2l1-1h2v1h1q1 0 0 0zm-122 58-4-1-6-2h-7l-8-1h-16l-5-1-3 1h-9l-2-1h-1l-1-1v-3h1v-1h10l6-1 7 1h7l9 2 7 1h4l2 1h3l1 1h1v3h-1v1h-9l-6-1h-30l-7 1h-15l-6 1h-6l-1-1q-1-1 0 0l-1-1v-1l1-1q1 0 0 0t0-1h7l4-1h7l10 1h14l6 1 6 1h7l1 1h1v2l-1 1h-1v1h-2l-5-1h-7l-7-1h-6l-8-1h-30q-2 0-3-2h1l3 2 4 3 7 3 7 4 3 2 2 3 2 1v2h-1q-1 0 0 0h-1v-2h2v2q0 1 0 0h-2l-2-1-5-3-7-4-7-3-4-3-3-1-3-2q-1-1 1-4l2-2 4-1 7 1h16l8 1h7l7 1h6l7 1h8v1q-1 1 0 0h1v2l-1 1h-1v1h-1l-3-1h-4l-5-1h-6l-7-1h-24l-4 1h-6l-1-1q-1-1 0 0l-1-1v-1l1-1q1 0 0 0t0-1h6l7-1h7l7-1h38l6 1h8l1 1h1v3h-1v1h-4l-3-1-4-1-7-1-8-1h-30q-1 0 0 0l-1-1v-3h1v-1h3l3 1h2l4-1h4l4 1h11l6 1h7l8 1q3 0 6 3t4 1v3z"/><path fill="#e03131" d="M129 142v-1l-1-4v-4l1-1h2l1 1q1 1 0 0t-1 4l-1 4-1 4-1 4-2 5-1 5-1 3-2 2q-2 0-1-1 2-2 2-5l1-3v-11l-1-3v-4q0-2-1 0l-1 3-1 3v3l-1 4 1 5 1 6 1 4 1 2 2 2 4 1 2 1h1v2h-2l-1-1 1-1h2v2h-1l-2 1h-3l-3-1-2-1-2-2q-2-1-2-3l-1-5-1-6-1-7 1-4 1-4 1-4 1-2 2-3h4l3 4 1 4v18l-1 3-1 4-3 3q-1 1-3-1-2-1-2-3t1-3l1-4 2-5 2-4 1-4 1-4 1-4 1-3 1-1h2l1 1q1 1 0 0t0 1v9h-1v1h-1v-1z"/><path fill="#e03131" d="m129 143-2 2-3 6-3 8-1 6-1 6 1 4 2 4 5 2 7 1h14l8-1 8-1h9l9-1h23l5-1 3-1h1q1 0 0 0h1v2h-1q-1 0 0 0t-1 0v-2h2v2l-3 2q-4 3-7 3h-16l-7 1h-26l-8 1h-15l-8-2q-5-1-7-3t-2-5l-1-5 1-6 2-7 3-9q2-5 4-6l1-2h1v-1h1v1h1zq0 1 0 0"/><path fill="#e03131" d="M180 171h-7l-7 1-11 2-10 3-4 1v2l4 1 5 1h8l10 1 18 1h19l15 1h14l13 1h34l13-2 12-1 5-1 2-1 2-1h1v2h-1v1l-1-1-1-1h1v-1h1q1 0 0 0l1 1v1h-1v1h-1v-1h-1v-1h1v-1h2-1q-1 0 0 0t1 0v2h-1v1l-1 2-2 3-6 1-11 1-13 1-11 1h-12l-13-1-13-1h-13l-15-1-20-1h-17l-11-2-8-1-6-1-4-2-2-2v-2l2-3 5-2 10-2 11-2 6-1h10v1h1v1h-1z"/><path fill="#e03131" d="M197 191h-1q-2 1 2 1l8-1h12l14-1 23-2 26-1 21-2 19-1h19l18-1 16-1 15-1 13-1 17-1 15-1 4-1h3v2h-2v-2h2v2q0 1 0 0l-2 2-5 2-14 2-18 1-13 1-15 1-16 1h-18l-18 1-20 1-20 1-27 1-23 1-14 1h-20l-5-1-1-3 2-2 2-1h2v2z"/><path fill="#e03131" d="m191 189 1 2 3 4 2 5v31l-1 5v10l-1 1q-1 1 0 0v2h-4v-1l-1-1q0-1 0 0t0-2l1-5 1-10 1-7v-1h2v2l-1 1-1-1v-2h2v27h-4v-1l-1-1q0-1 0 0t0-2 1-3v-18l1-7v-16l-1-4-1-3-2-2v-3h2z"/><path fill="#e03131" d="M192 209v-13l1-1h2l1 1v2l1 3v41l-1 4v6l1 2-1 1q-1 1 0 0v1h-1v1h-2v-1h-1q-2 1 0-1h-1v-1l1-2 1-4 2-8 3-14 1-11v-2 4l-1 5v6l-2 8-1 6q0 1 0 0l-1 1-1-1v-1q0-1 0 0t0-1h2v2l-1 1-1-1v-1l-1-5v-8l1-7 1-5 1-4 2-3 3-1 1 2 1 5-1 11-2 15-2 9v4l-1 1q-1 1 0 0v1h-1v1h-2v-1h-1q-2 1 0-1h-1v-1q0-1 0 0v-17l1-5v-36l1-1h2l1 1v14h-1v1q0 1 0 0h-2v-1zm165 0v2l-1 12 1 17 1 9v6l1 2 1 1v1h-1v1h-4v-9l1-4v-17l-1-6-2-7-1-7-2-4-1-2q-1-1 0 0v-2q0-1 0 0v-1h1l1-1h1l1 1h1v6l1 4v6l1 6 1 8 1 8 1 5v4l1 3 1 1v1h-1v2h-2q-1 0 0 0h-2v-1l-1-1 1-3 2-6v-18l-1-7-2-7-1-6-1-5-1-3-1-2v-4h2v-1h1v1h2v2l1 3 1 5 1 4v6l1 5 1 7 1 7v8q0 1 0 0v2h-2v1l-1-1h-1v-1h-1l1-2v-18l-1-9-2-6-1-5-2-4-1-4-1-2-1-1v-2h1v-1h1l1-1h1v1h1v1h1v3l1 4 1 5 1 8 1 7v8l1 6 1 6v19l-1 1h-1q-1 0 0 0h-2l-1-1v-14l-1-9v-8l-1-7-2-8-1-7v-5l-1-4q0-2 2-2t2 3v10l1 5v6l1 6 1 5 1 5 1 5v4h-1v1h-1v-1h-1v-2h2v1h1v1h-1v1h-1q-1 0 0 0v-1h-1l-2-3-2-5-2-5v-5l-1-6-1-6v-15l1-5q1-2 3-2t3 2v2l1 4v5l1 7 2 8 1 8v8l1 9 1 7v4l-1 2v1l-1 1h-1q-1 0 0 0h-2q-1 0 0 0l-1-1v-6l-1-5v-7l-1-7-1-6-1-7v-7l-1-8-1-5-1-4v-4h1v-1h1l1-1 1 1h1v1h1v1l1 3 1 3 1 5 2 5 1 7 1 9 1 8v9l-1 2q0 1 0 0v2h-2v1l-1-1h-1v-1h-1v-2l-1-2-1-4v-7l-1-7-1-6-1-5v-4l-1-4v-7h2v-1h1v1h2v4l1 4 1 5 2 7 1 6 1 8 1 7v6l-1 7-1 4v3h-1v2h-2q-1 0 0 0h-2v-1l-1-1-1-3-2-5v-5l-2-8-1-9v-21q0-1 0 0v-1h1l1-1h1l1 1h1v1q0 1 0 0l1 2zl2 7 1 7 1 6 1 7v6l-1 6v11h-1v1h-3l-1-1v-1h-1v-2l-1-3-1-4v-9l-1-18 1-13 2-2v-1h3v2q0 1 0 0z"/><path fill="#e03131" d="m202 207-2-1-3-1v-1h-1v-2h1v-1h3l1 4v45l1 7v20l-1 1 1-1v1h-1v1h-2v1l-1-1h-1l-1-1v-2l-1-3v-9l1-13 1-14 1-9v-18l1-1h2l1 1v1h1l-1 2-1 5-1 8v9l-1 7-1 5v5l-1 3v3h-1v1h-1v-1h-1v-2h2l1 1v1h-1q-1-1 0 0t0 1h-1v-1h-1l-1-2-1-5v-5l1-5 1-7 1-9 1-8 1-4 1-2v-1l1-1h2l1 1v1h1v9l-1 8-1 10v37l1 2v1h-1v1h-2v1l-1-1h-1l-1-1v-21l-1-6v-20l1-11v-7l1-5v-4h-1v-2h1v-1h3l2 1 2 2q1 0 0 0v3zq-1 0 0 0m5 69 4 3q5 4 13 7l15 5 12 3 12 3 11 2 12 2 11 1 12 1h22v1q0 1 0 0v1h-2v-2h2v2h-2v-2h2v1q0 1 0 0v1h-1l-1 1-8 2h-13l-12-1-11-1-12-2-11-2-12-3-13-4-16-5-13-7-4-4v-1h-1v-2h1l1-1h1z"/><path fill="#e03131" d="M233 297h15l10-1h12l12-1 17-2 16-2q6 0 10-2l9-2 9-2 7-2 6-2 4-1 3-1 1-1h1l1 1h1v4h-9l-7 1-3-1h-1v-2q0-1 0 0h2q1 0 0 0v1q0 1 0 0v1h-2v-2h1l3-1 8-1 5-1h1l1 1h1v4h-1l-1 1-3 1-4 1-6 2-8 2-9 2-10 2-10 1-16 2-17 2-12 1h-22l-8 1h-8l-1-1q-1-1 0 0v-3h1z"/><path fill="#e03131" d="m301 293-4 1-6 1-4 1-6 3-4 1h9l9-1 11-1 10-3 8-2 8-3 6-3 6-3 5-4 4-3 3-6 2-5 1-3v-4q0-2 0 0l-2 2-1 3-1 2-1 2v3l-1 3v3l-1 2-2 5-4 4-4 3-4 2-6 2-6 1-7 2-9 1-9 2-13 1-14 2h-22l-9-1-8-1-7-1-7-2-4-2h-1v-2h2l1 1v1h-1q-1-1 0 0t-1 0h-1v-2h13l6 1 8 1 9 1h21l14-2q8-2 13-1l9-2 9-1 7-1 5-1 5-2 4-2q2 0 3-2l3-3 2-3 1-2 1-3v-3l1-2v-3l2-4 1-3 3-3q2-2 5-1 2 0 2 2l1 4-1 4-1 3-2 7-4 6-4 4-6 3-6 4-7 3-8 2-9 3-9 2-11 2-10 1-6-1h-4l-2-2 2-3 4-2 6-2 5-2 5-1 5-1q1 0 0 0h1v2z"/><path fill="#e03131" d="M291 305h-2l-3 1h-4l-8 1h-10l-10 1-10-1-10-1-12-3-11-5-6-3-5-3-3-3-1-3q0-2 2-3l2-1q1 0 0 0h1v2l-1 1h-1v-3h2v2l-1 1v1l2 2 5 3 5 3 11 4 12 3 9 1 10 1 10-1h10l8-1h10v1h1v3h-1zm-94-4-7 1h-18l-4-1-2-1-1-1v-1q0-1 0 0t0-1 1 0v-1l1 1 1-1 3-1h4v2h-2v-2h2v2h-1l-2 1h-3l-2 1-1 1-1-1v-1q0-1 0 0t0-1 1 0v-1l1 1h1l5 1h25v2q0 1 0 0z"/><path fill="#e03131" d="M209 300h-3l-5 1-5 1h-9l-5 1h-9l-3 1h-6v-1h-1v-1h1q1 1 0 0v-1h1v1h1v1l-1 1h-1v-1h-1v-1h1v-1h2l3-2h4l4-1h19l4-1h5l4-1 1 1v2z"/><path fill="#e03131" d="m169 302-1 1h-2v-2l1-1z"/><path fill="#e03131" d="M198 298h4v3h-1l-1 1-3 1-4 1-6 1h-18l-5-1h-4l-3-1h-1l-1-1v-2h2v2l-1 1h-1v-3h3l3-1 3 1h28l4-1 4-1h2v3h-5q-1 0 0 0v-1h-1v-1q0-1 0 0h1v-1z"/><path fill="#e03131" d="m195 306-4 1-7 1h-15l-5-1h-9l-1-1h-1v-2l1-1h3l3 1v1h1v1h-1v1h-1v-1h-1q-1 0 0 0t0-1v-1h2v1h1v1h-1v1h-5l-1-1h-1v-2l1-1h7l3 1h27l4-1 1 1v2zm-43 4 1 6-1 13v11l-1 7v4l-1 3v6h-1v1l-1 1h-1q-1 0 0 0t0-1-1 0 0-1v-3l1-4v-3l1-4v-5l1-5v-5l1-7 1-6v-3l1-3zh2v1h1l-1 2v4l-1 5-1 7v5l-1 5v13l1 4v4h-2v-2h2v2h-2v-2h2v1q0 1 0 0t0 1-1 0h-1q-1 0 0 0v-1h-1l-2-1v-24l1-6 1-6v-6l1-3zh2v1h1l-1 2-1 3v3l-1 6-1 7v6l-1 4v5l-1 4v4l-1 3v4l-1 1h-1v-1h-1q-1 1 0 0t0-1v-6l1-3v-11l1-11 1-13v-7h1v-1h1q1 0 0 0l1 1z"/><path fill="#e03131" d="m151 343 1-8v-24h3v3l-1 5-1 6v10l-1 10v7l-1 6v8l-1 6-1 4v6l-1 1-1-1v-2h2v2l-1 1-1-3-2-5 1-3v-7l1-7v-14l1-10 1-9 1-8 2-5v-1h3v12l-1 12v9h-2zm4 34 2 2 4 3 4 2 5 2 5 2 5 1 4 2 4 1h3l1 1h1v1h1v1h-1v1q0 1 0 0h-1l-2 1h-4l-5-1-7-1-7-2h-6l-5-1h-3l-3 1h-2q-1 0 0 0v-1q0-1 0 0t-1 0 0-1l1-1q1-1 0 0h1v-1l5 1h37l3 1 2 1 1 3-2 1-4 1h-4l-4 1q-2 1-5-1t-6 0l-4-1-7-1h-5l-2-1h-2v-1h-1v-1l1-1q1-1 0 0t0-1h4l4 2h4l6 1 4 1q1 0 0 0l1 1v1h-1q-1 0 0 0v1h-1v-1h-1v-2h2v1h1v1h-1q-1-1 0 0t-1 1h-10l-4-1-2-1h-3l-1-1h-1v-1h-1v-2h1v-1h4l5 1 7 1h5l5 1h9l5-1 1 2-2 1h-29l-8-1-5-1h-1q-1 0 0 0v-1q0-1 0 0t-1 0 0-1l1-1q1-1 0 0h1v-1h7l5 1 6 1 7 1 8 1h11v1h1v1h-1v1q0 1 0 0h-2l-3-1h-5l-5-2-5-2-5-1-5-2-5-3q-3-1-4-4l-1-2v-1h-1 1v-1h1zm190-80h9l13-1 8 1h22l3 1h2v1h1v2h-1v1h-1q-1 0 0 0h-3l-2-1h-1q-1 0 0 0v-2q0-1 0 0t1 0h1v2h-2v-2h1l1-1h5v1h1v2h-1v1h-1q-1 0 0 0h-20l-6-1h-21l-10-1-1-1v-1h1v-1z"/><path fill="#e03131" d="M347 294h2l4-1 5-1h5l7-1h16l9-1h5l1-1h1v1h1q1-1 0 0v3h-1q-1 0 0 0t-1 1l-2-1h-17l-14 1h-11zh-11l-1 1h-2v-3h15l8-1 7 1h23l7 1 7 1 3 1 1 1v1h-1v1h-1v-1h-1v-1l1-1q0-1 0 0h2v2q0 1 0 0l-1 1q0 1 0 0h-10l-7-1h-14l-9-1h-23l-5-1h-2v-3h1q1 0 0 0t2 0 4-1 6-1h11l11-1h14l11-1h9v1h1q1-1 0 0v3h-1q-1 0 0 0t-1 1h-3l-3 1h-25l-6 1h-11l-4 1h-3v-3z"/><path fill="#e03131" d="M396 296v-4l1-1h2l1 1 1 3 2 5v10l1 6v6l1 7 1 6v11h-1v1h-1l-1-1h-1v-1l1-1v-3l1-2v-11l-1-6 1-5v-5l1-6v-11l-1-2q0-1 0 0v-1q0-1 0 0h1v-1h2v1h1v2l2 6 1 8 1 9v9l1 6 1 4 1 3 1 3v2q0 1 0 0v1h-1q-1 0 0 0h-1l-1-1v-1h3v2h-3l-1-2-2-3-1-3-1-4-1-6v-10l-1-8-1-9-1-7q0-1 0 0v-1q0-1 0 0h1v-1h2v1h1v14l-1 6v27l-1 3v4h-1v1h-1l-1-1h-1v-1l-1-3v-7l-1-6-1-7v-12l-1-5v-4l-1-4-1-3v-2q1-1 0 0l1-1h2l1 1v5h-1q-1-1 0 0t0 1-1 0-1 0 0-1-1 0 0-1"/><path fill="#e03131" d="M403 301v-3l-1-3v-2h1v-2h1q1 0 0 0t1 0h1v2l2 2 4 7 2 9 1 7 1 8v7l-1 7v11l-1 4-1 4-3 4-2 2v1h-2v-2h1v-1h1v1h1v1h-1v1h-2v-2l1-2 1-4v-4l1-4 1-5v-12l1-7-1-7-1-7-1-8-3-7-2-3v-3h1q1 0 0 0t1 0h1v11h-3z"/><path fill="#e03131" d="m407 309-1-1-1-1v-2q0-1 0 0v-1h2l1 1-1 1 1 6v9l1 8 1 7 1 7v25l-1 4-1 2h1v2h-1v1q1 1 0 0h-1v-1h-1v-1h1v-1h2v2q0 1 0 0l-1 1q0 1 0 0h-1l-1-4-1-5v-24l-1-8v-7l-1-8v-9l1-5v-2q0-1 0 0v-1h2l1 1 1 1v1l1 1v1h-1v1h-2zq0-1 0 0"/><path fill="#e03131" d="m413 377-2 1-3 3-4 1-4 2-5 1-6 2-7 1h-10l-3 1h-3l-1-1q-1 0 0 0t0-1v-2q0-1 0 0t1-1h17l11-1h13v1h1v3h-1l-1 1-3 1-5 2h-5l-5 1-8 1h-15l-5 1h-5l-2 1h-1l-1-1q-1-1 0 0l-1-1q-1-1 0 0v-2l1-1 1-1 2 1h26l6-1h6l4-1h5v1h1v1h-1v1h-2l-3 1-3 1h-4l-6 1-6 1h-6l-6 1-7 1h-13q-1 0 0 0h-2v-4l1-1h1l4 1h4v1q-1 2 1 0v1q0 1 0 0v1h-2v-1h-1v-1h1v-1h1l1 1q1 0 0 0v2h-1l-4 1h-4q-1 0 0 0h-2v-4l1-1h13l8-1 6-1h6l5-1 6-1h4l4-1h2l1 1h2v1h1v1h-1v1h-2l-3 1h-4l-5 1-7 1-7 1h-21l-1-1q-1-1 0 0l-1-1q-1-1 0 0v-2l1-1 1-1 2-1h17l8-1h8l6-1h4l4-2 4-1h2v1h1v3h-2l-2-1h-10l-11 1-11 2h-6l-1-1q-1 0 0 0t0-1v-2q0-1 0 0t1-1h2l4-1 3 1h2l4-1 6-1 7-1 4-1 4-2 3-1 4-2 2-2h1q1 0 0 0h1v1q-1 1 0 0h1v3zm-213 20 1 8 1 12v8l1 2v1h-1v1h-1v-1h-1q-1 0 0 0v-2h2v1h1v1h-1v1h-1v-1h-1l-1-2-1-2v-7l-1-11-1-9 1-1h2z"/><path fill="#e03131" d="M200 399h-1v-1q0-1 0 0v-2h1v-1h1v1l1 1 1 4v22l-1 3v4l-1 3-1 1h1v1l-1 1h-1v-1h-1v-1h1v-1h1v1h1q1 0 0 0t0 1v1h-2l-1-3-1-4v-3l1-3v-19l1-3v-3q0-1 0 0v-2h1v-1h1v1h1v1h1v2h-2zm5 34v5l1 2 3 1 1 1h-1 1v1q0 1 0 0v1h-1v1h-1v-1l-1-1h1v-1h1l1 1v1h-1v1l-1-1h-1v-1h1v-1h2v1l-1-1h1v1q0 1 0 0v1h-1v1h-1l1-1-2-1-2-1-3-2-1-3 1-3 1-2v-1h2z"/><path fill="#e03131" d="m201 435 2-1 2-1q1 0 0 0t1 0v1h1v2h-1v1h-3l-5 1h-3l-4 1-4 1-2 1q-1 0 0 0h17l4-1h4l3-1h3l1 1h1v2l-1 1q-1 1 0 0h-1l-1 1-6 1-4 1h-1q-1 0 0 0t0-1-1 0v-1h1v-1h1v1h1v2h-2q-1 0 0 0v-1h-1v-1h1v-1l5-1 6-2 1-1 1 1h1v2l-1 1q-1 1 0 0h-1l-2 1h-3l-4 1h-5l-5 1h-7l-5-1h-3l-2-2v-3l1-2 2-1 3-1 4-1 4-1 4-1h7q1 0 0 0t1 0v1h1v2q0 1 0 0h-1v1h-2l-2 1h-1q-1 0 0 0h-1v-2z"/><path fill="#e03131" d="M181 443h2l6 2 8 1 6 1h36l3-1h1l1 1h1v3h-1v1h-3l-3-1h-6l-3-1h-1v-2h2l1 1-1 1h-2q-1 0 0 0t0-1 0-1h1l3-1h11l1 1h1v3h-1v1h-41l-7-1-8-2-7-2-2-1v-1h-1l1-1 1-1z"/><path fill="#e03131" d="m215 448-3 1-5 2-2 1q-1 0 0 0l-1-1h-1v-2l1-1h3l3 1h27l10-1h36l14 1h10l9-1h8l6-1h4l3-1h3l1 1v3l-1 1-1 1-3-1-10-2-10-1h-17l-7 1-6 1-5 1h-7v-2h1q1 0 0 0l3-1 6-1h8l10-1 8-1 6-1h6l6-1h5l4-1h3l2-1h1v1h1v3h-1v1h-1l-2-1h-8l-4 1-5 1-3 1-3 1-2 1h-2l-1-1v-3h19l5-1h6l5-1 4-1h2q2-1 1 1l-2 2h-5l-3 1-3 1h-2l-3 1-2 1-1 1-1-1h-1v-1h-1v-2l1-1h10l4-1 4-1 4-1 4-1 2-1h1v-1h1v1h1l1 1q1 1 0 0v2h-1v1h-2l-3-1-4 1h-3l-4 1-4 2-4 1-3 1-2 1-1 2h-3v-1h-1v-2q0-1 0 0v-1h1l3-1 5-1 2-1h1v1h1l-1 1q-1 0 0 0v1h-1v-1h-1v-1q0-1 0 0l1-1h1v1h1v1h-1q-1 0 0 0v1l-2 1-4 2-2 1h-3v-1h-1v-3h1l1-2q1-2 3-2l3-1 4-1 5-2 4-1h8l3 1v-1h1v1h1l1 1q1 1 0 0v2h-1v1h-1q-2-1-1 1l-3 2h-3l-4 1-4 1-5 1-4-1h-3l-1 1-1-1h-1v-1h-1v-2l1-1 1-1 2-1 3-1 3-1 3-1h10l3 1q2 1 1 3l-3 2-2 1-4 1h-5l-7 1h-23l-1-1v-3h1v-1l2-1 4-1 3-1 5-1h4l4-1h3l3 1 1 1v-1h1v1h1v3h-1v1h-1l-2 1h-3l-3 1h-5l-7 1h-12l-8 1h-9l-9 1h-10v-2h1q1 0 0 0l1-1h5l4-1 7-1 7-2h17l11 1h9l2 1h2l1 1v1q0 1 0 0v2l-1 1-1 1h-1l-3 1h-4l-7 1h-7l-10 1-11-1h-13l-15-1h-12l-9 1h-10l-9 1-8-1h-7l-5-1-3-1q-1 0 0 0l-1-1h-1v-2l1-1h1l1-1 5-1 4-1v1h1v2zq-1 0 0 0"/><path fill="#e03131" d="m347 429-1-3-3-3-1-4-2-5-1-4v-3l1-3 4-2q2 0 3 2v31l1 3 1 2v1l-1 1q-1 1 0 0h-3l-1-1 1-2 1-3v-3l1-2v-23l-1-4v-3l-1-2 1-1q1-1 0 0t0-1h1q1 0 0 0h3v1h1v8l1 3v9l1 5 1 4v3l1 2-1 1-1 1h-2q-1 0 0 0l-1-1q0-1 0 0l-1-1v-3l1-4-1-4-1-4v-9l-1-5v-10q0-2 0 0t0-1h1v-1h3v1h1v1q0 1 0 0t0 2l-2 2-1 3v3l-1 7-1 7v19l-1 2v1h-2l-1-1 1-1h2v2h-2l-1-1v-2l-1-2v-4l-1-4v-9l1-8 1-7 1-4 2-3 1-2q0-1 0 0t0-1h1v-1h3v1h1v1q0 1 0 0t0 2l1 3v14l1 4v4l1 3v9l-1 1-1 1h-2q-1 0 0 0l-1-1-1-1h1-1l-1-3v-3l-1-4v-3l-1-5v-4l-1-4v-7l1-1q1-1 0 0t0-1h1q1 0 0 0h3v1h1v1l-1-1 1 2 1 4v16l1 4v4l-1 4-1 3-1 3-1 2v1l-1 1q-1 1 0 0h-3l-1-1q0-1 0 0v-1l-2-3v-5l-1-6v-13l1-3v-3l1-2v8l1 5 2 3 2 4 1 3q0 1 0 0v1q0 1 0 0zm-228 71h58l7-1h6l3-1h1l1-1h1l1 1h1v2l-1 1q-1 0 0 0v1h-7l-4 1-3 1-2 1v1h-2l-1-1v-1q0-1 0 0t0-1 0-1 1 0h12l3-1 1-2 1-6 1-6v-10l-1-8-1-8v-7l2-4 3-1 3 3 2 4 1 9v11l-2 11-1 9-1 3-1 2v1h-3v-4l2-2v-2h1v-1h1v1h1v1h-1v1q1 1 0 0t-1 0l-1-1q0-1 0 0v-1h1v-1h1v1h1v1l-1 2-1 3v2h-3q-1 0 0 0v-3l1-4 1-8 1-11v-11l-1-8q0-2 0 0t0 4l1 7 1 9v11l-1 6-1 4-1 3-3 3-2 1-3 1h-12l-1-1v-1q0-1 0 0t0-1 0-1 1 0l1-1 2-1 3-1 4-1 2-1h5l1 1h1v2l-1 1q-1 0 0 0t0 1h-1l-2 1h-4l-6 1h-39l-17-1h-10v-2q0-1 0 0z"/><path fill="#e03131" d="M206 458v-2l1-1 1 2-1 5-1 6-2 6q-2 3-1 6l-2 8-2 10-1 5-1 1h-1v-1h-1v-1h1v-1h1l1 1q1 0 0 0t0 1 0 1-1 0-1 0v-1h-1v-6l2-10 2-8 1-6 1-6 2-6 1-4 1-2 1-2 2 2 1 2v1l-1 1h-1zm276 38 3-2 4-1 1-1h1l1 1 1 1-1 1v1h-2l-3 1h-3l-4 1h-27l-8-1h-10l-8 1-5 1h-7v-2h2v1q0 1 0 0v1h-2v-2l2-2 4-2 5-1h27l11 1h15l4-1h8l1 1 1 1-1 1v1h-1q-1 0 0 0l-5 1-4 2h-1v-3z"/><path fill="#e03131" d="M465 501h-2l-9 1-12 1h-33l-6-1h-6l-5 1h-15l-1-1v-2l1-1h9l5-1q3-1 6 1h3v1q0 1 0 0t0 1h-1q-1 0 0 0l-2 1h-18l-4-1-2-1-3-1-2-1-3-2-2-4-1-4v-8l2-6 1-6 1-5v-9h1v-1h4v2h1l-1 2-1 2-1 3v2l-1 4v32l-3-1-1-4-1-4-1-4-1-5-1-6v-6l-1-7-1-5v-1l1-1v-1l1-1h2q1 0 0 0h1l1 1v26l1 5 1 3-2 2q-2 1-1-1t0-3l1-4-1-5-1-4-1-5-1-5-2-4q-1-2 1-1 1-1 1 1v8l-1 4v4h-1v1h-1l-1-1v-2h2l1 1v1h-1q-1 0 0 0v1h-1v-1h-1v-1l-1-2-1-6v-7l1-3 1-2 2-1q1-1 3 1l3 4 1 4 1 5 1 5 1 4 1 4v7l-1 3-3 3h-2l-2-2-1-2v-3l-1-5-1-6v-19l1-1v-1l1-1h3l1 1v3l1 5v6l1 6 1 5 1 5 1 5 1 5v5q1 1-1 3-1 2-3 0l-2-2-1-2v-36l1-3 1-3 1-2v-1h1v-1h4v2h1v3l-1 3v3l-1 5-1 5-1 4-1 3v6l1 3 2 3 3 2 4 1 3 1h3l5 1 5 1h7v1q0 1 0 0t0 1h-1q-1 0 0 0h-2l-6 1h-8l-3 1h-3l-1-1v-2l1-1h3l5-1 7-1h70l3-1v1h1q1 0 0 0l1 1v1l-1 1z"/><path fill="#e03131" d="M363 457v-13h1v-1h3v1h1v1l-1 1v27l-1 4v3l-1 2-1 2-1 2h-1v1l-1-1q-1-1 0 0h-1v-1h-1v-1h1l-1-2v-8l-1-3v-18l2-4q1-2 3-2l3 1v24l-2 6-1 4v1h-1l-1-1v-2h2v1q0 1 0 0t0 1l-1 1-1-1v-1l-1-3v-17l1-7 2-4 1 2-1 2zl-1 3v6l1 5v16h-1v1l-1-1h-1v-1h-1v-1h1v-1l1-1v-6l1-3v-4l1-5-1-6v-8l1-3v-3h1v-1h3v1h1v3l-1 6-1 5v1h-3v-2z"/><path fill="#e03131" d="M341 446h7l5-1 4-1 4-1 4-1 4-1 3-1 4-1 3-1 1-1h2l1 1 1 1v3h-1v1h-5l-3 1h-10l-5-1-2-1h-1v-2l1-1q1 0 0 0l1 1v1q0 1 0 0v1h-2v-2l1-1 1 1v2h-2v-2l1-1q1 0 0 0h12l4-1 4-1h3q1 0 0 0t-1 0 1 0 1 0 1 1l1 1v3h-1v1h-1l-3 1-3 1-2 1-4 1h-3q-1-1-4 1l-5 1-4 1-6 1-6-1-2-1-1-1v-2z"/><path fill="#e03131" d="M371 441h-1l-3 1h-24v1h-1l-1-1h-1v-4h7l8-1h12l3-1h7v1h1v1q0 1 0 0t0 1-1 0v1h-2zl-5 1h-3l-4 1h-7l-5-1-3-1-1-1 1-1h2v2h-2q-1 0 0 0t-1-1l1-1h3l4-1h8l3-1h8l4-1h3v1h1v1q0 1 0 0t0 1-1 0v1h-15l-7 1-8 1-4 1h-1l-1-1h-1v-4h1l1-1h28l1 1h1v2z"/><path fill="#e03131" d="m378 445-2-1-3-2-4-1-4-1h-9l-4-1h-8l-3-1h-1v-2q0-1 0 0h1v-1h1v1h1v1q0 1 0 0h-1v1h-1l-1-1v-1h1v-1h3l4-1h13l5 1 5 1q3 0 4 2l4 2 2 2v3zm-181-5h10l11 1h20l6 1h9l4 2v2h-2v-2l1-1 1 1v2h-39l-11-1-8-1h-2l-1-1v-2z"/><path fill="#e03131" d="M203 441h3l4-1h3l8-1h19l7 1 8 1 4 2h1q1 0 0 0v2h-3v-1l1-1h2v2h-6l-7-1h-7l-9-1h-10l-8 1h-12v-2l1-1zm-50-141v11l-1 3v4l-1 6v6l-1 4v17l-2 4-1 2v1h-2v-2l1-1 1 1v2h-2v-2l-1-2v-20l1-4 1-7v-6l1-3v-4l1-3 2-5 1-2v-1h2z"/><path fill="#e03131" d="M151 315v3l-2 7-1 8v44l-1 3-1 2-1 1v1h-2v-2l1-1 1 1v2h-2v-2l1-1 1 1v2h-2v-1l-1-1v-43l1-7 2-8 2-7v-3h1v-1q-1-1 0 0t1 0h2q1 0 0 0z"/><path fill="#e03131" d="M148 367v2l1 5v8l1 2v3l1 2v3h-1q-1 0 0 0h-1v-2l1-1h1v3h-2v-2l1-1q1-1 0 0l1 1q0 1 0 0v1-1 2h-1q-1 0 0 0h-1l-2-1q-2 0-2-3t0-2v-4l-1-3 1-5v-8h1v-1h1q1 0 0 0l1 1q0 1 0 0zm11-62 1 2v3l1 4v14l-1 5v5l-1 5-1 6-1 6v4l-1 4v11l-2 2q-1 1-1-2v-2l-1 1q-1 1 0 0h-2v-2h3v1l-1 1h-2v-2h1q1 0 0 0h1l1 1-1 1q-1 1 0 0h-2v-1q-1 1-1-1t0-2v-3l1-3v-6l1-3 1-6v-6l1-5 1-5 1-4v-22q0-3 3-3h3v2z"/><path fill="#e03131" d="m156 308 2 3 1 5 1 4 1 8v8l-1 6v11l-1 5v5l-1 4v8l-1 4v3l-1 3v4l-1 2v1h-1l-1 1h-3v-1h-1v-3 1l-1-1v-3l1-3 2-3 2-2 1-1q1-1 0 0l1 1v2h-2v-2q0-1 0 0l1-1 1 1v4l-1 5v3l1 2h-1v1h-4v-1h-1v-4l1-2v-8l1-3v-9l1-4v-4l1-5v-6l1-5v-21l-1-4v-10h1v-1h2v1z"/><path fill="#e03131" d="M157 300v-1h2l1 2 1 4 1 3 1 2 2 4 1 4 1 3 1 4 1 6v10l-1 4v7l-1 4-1 3v3l-3 2h-2v1h-2v-2h2v2h-2v-2h1q1 0 0 0h1v1q0 1 0 0v1h-2v-5l1-4 1-3v-5l1-3v-13l-1-5v-4l-2-4-1-3-1-3-1-3-1-4-1-4v-4l2-3 3 1 2 2q1 0 0 0v1l-1 1-1 1h-1z"/><path fill="#e03131" d="M157 301v3l2 6 2 6 1 8 1 9v11l-1 7-1 7-1 5-1 4v3l-1 3v3l-1 4-1 2q0 1 0 0v1l-1 1-1 1h-3l-1-1q-1 0 0 0v-1l-1-1q-1-1 1-3t1-6l2-6 1-3h1v-1h1v1h1v1h-1v1h-1l-1-1v-1h1v-1h1v1h1v1l-1 3v15l-1 1-1 1h-3l-1-1q-1 0 0 0v-1l-1-1q-1-1 1-2l1-3v-3l1-3v-2l1-3v-4q-1-2 1-5l1-7 1-6v-5l1-6-1-8-1-8-1-6-1-7v-4h1v-1h1l1 1z"/><path fill="#e03131" d="m163 344 1 2 1 5v13l-1 6-1 4-1 3-1 2-1 3-1 3-2 3-1 3v1h-1v1h-4l-1-1v-1h-1v-1l1-1-1-2 1-3 1-3v-2l1-1v-1h3l1 1 1 1v1l-1 2v1q1-1 0 0v2h-1l-1 1h-1l-1-1h-1l-1-1v-2l1-1 1-1q-1 1-1-1l1-3 1-4 1-4 1-2v-3l1-5v-10l1-5v-21l-1-5-2-4-1-2-1-3-1-2-1-3-1-2v-2h1v-1l1-1h4v1l1 1v3l-1 3v2l-1 1v1h-1v1h-3v-1h-1l-1-1v-1l1-2 1-2q0-1 0 0l-1 1v-1l1-1v-1h4l1 1 1 1v1l-1 2-1 4v2l-2 4-2 9-2 10-2 7-1 7v6l-1 5v8l1 3v4l1 3 1 3 1 2v4h-1v1h-1l-1 1h-1v-1h-2v-4q1-3 3-3l2-1 1 1h1v1h1v3l-1 1-1 1h-1l-2-2q-2-3-1-4l1-4 1-3v-2l1-1 1-1h4v1h1v4l-1 3v5l-2 2-2-2v-4l1-3 1-2v-8l-1-3v-3h1v-1h4l1 1v3l-1 5-1 3v10l-1 1-1 1-1 1h-1q-1 0 0 0l-1-1h-1v-1h-1v-1l1-2 1-3 1-4 1-3 2-3v-3l1-4 2-5 1-6 1-4v-3l-1-4v-3l-1-4v-3l-1-4v-3l-1-3-1-3v-2l-1-3-1-3v-5l1-1h3l1 1q0 1 0 0l1 2v3l-1 4v3l-1 4v5l-1 5v6l-1 9v9l-1 4v8l1 3v9l-1 1-1 1h-3l-1-1v-1l-1-1 1-1 1-4v-6l1-5 1-7 2-5v-3h1v-1h2v1q-1 1 0 0v1h-1v1h-1v-1h-1v-1q0-1 0 0h1v-1h1l1 1v9l-1 7v7l-1 3v6l-1 1-1 1h-3l-1-1v-1l-1-1v-33l1-9v-5l1-6 1-4v-5l1-3v-3l1-2v-3l1-1h3l1 1q0 1 0 0l1 1v4l1 2 1 3 1 4 1 4 1 3v4l1 3v8l1 3zl-1 4-1 6-1 6-2 4-1 4-1 3-1 2-1 3-1 2v2l-1 1-1 1-1 1h-1q-1 0 0 0l-1-1h-1v-1h-1v-8l1-4 1-4 1-4v-2h1v-1h4l1 1v1q0 1 0 0-1-1 0 0t1 2 1 4v4l-1 4-1 3v5l-2 4q-1 3-4 0-3-2-3-4l-1-4 1-3v-3l1-2 1-1h4v1h1v3l-1 1-1 5-1 4q-1 1-2-2l-1-2 1 1h1v1h1v3l-1 1-1 1h-1q-1 0 0 0v-1l1-2v3h-1v1h-1l-1 1h-1v-1h-2v-1l-1-1v-1l-1-2-1-3-1-4v-4l-1-4v-9l1-5v-6l2-7 1-7 2-11q1-6 3-8l1-4 1-3 1-3v-2l1-1v-1h4l1 1 1 1v1l-1 1v2l-1 1v1h-1v1h-3v-1h-1l-1-1v-4l1-3v-2h1v-1l1-1h4v1l1 1-1 1 1 1 1 2 2 3 1 3v2l2 4 1 4 1 4v9l-1 5v17l-1 5v4l-1 3v4l-1 4-2 4-1 4-2 2q-1 1 0 0l1-1v2h-1l-1 1h-1l-1-1h-1l-1-1v-2l1-1 1-2q1 0 0 0h-1l1-1v-1h3l1 1 1 1v3l-1 3v7h-1v1h-4l-1-1v-1h-1v-1l1-1v-1l1-2 1-3 1-3 1-3 1-3 1-2 1-3 1-6 1-5v-3l1-3v-5l-1-2v-1h1v-1h3zq-1 1 0 0"/><path fill="#e03131" d="M152 313v-3zv3l-1 5v44l1 8v3l1 3 1 4 1 4q1 2-1 2t2 0l2-1h1v1h-1v1h-1l-1-1v-1h1v-1h1v1h1v1q0 1 0 0h-1v1h-1l-1-1q0-1 0 0v-1h1v-1h1v1h1v1l-1-1h1v1h-1v1h-1l-1 2q-1 3-3 2l-4-2-1-3-1-4-1-3v-3l-1-3v-3l-1-8v-40l1-4v-6l1-4 2-3 2-2 3 1q2 1 2 3t1 2l-1 1v1h-2zm251-10-1-2v-2h-1v-1l1-1v-1h1q1 1 0 0h3v1l1 2 3 5 2 5 1 4 1 3 1 4 1 4v17l-1 6-1 3v1h-2l-1-1q-1-1 0 0l1-1h2v2h-2l-1-1v-3l-1-6v-13l-1-3v-4l-1-3v-3l-1-4-2-4zl-1-3-1-1v-1l1-1v-1h1q1 1 0 0h3v8h-3z"/><path fill="#e03131" d="M405 306h1l2 3 4 6 2 7 2 5 1 5v4l1 3v6l1 3q1 2-1 4t0 4v7l-1 3v5h-1v2h-1l-1 1h-2v-1h-1l-1-1v-1l1-3v-3h1v-1q0-1 0 0t1 0h1v2h-1v1h-1v-1h-1v-1h1v-1h2v1l1 2 1 2v4h-1l-1 1h-2v-1h-1l-1-1v-5l1-3v-8l1-4v-6l-1-4v-5l-1-4v-4l-2-5-2-6-2-5-1-3-1-2 1-1q1 0 0 0v-2h2z"/><path fill="#e03131" d="m412 334 2 5 2 6 1 5v3l1 4v2l-1 3v8l-1 3v3l-1 3-1 3-2 3-2 1-2 1h-1l-1-1h-1v-4h1v-1h1l-1 1h-1l2-3 2-3 2-2 1-1v-1h3l1 1v2-1 4l-1 3v3l-1 3-2 2-1 3-3 2h-3l-3-3v-2l1-3 2-2 1-1h2l1 1q1 1 0 0l1 1v1q0 1 0 0v1l-1 1v1h-1l-1-2-1-4 1-3 1-3 1-2 1-3v-2l1-3v-3l1-4v-5l-1-4v-17l-1-4v-3l-1-3-1-3-1-3-1-3v-3l-2-3-2-3-2-3-2-3-1-2v-4l1-1h4l1 1q1 1 0 0v1l1 2v4l3 6 3 6 3 4 2 4 2 4 1 5 2 4v22l-1 3v4l-1 3-1 4-2 3-1 3-2 4-3 4-3 1-2 1h-2v-2h1v-1h1v1h1v1l-1 1h-2v-1q1-1 0 0t0-1 1-1h1v1h1l-1 1v1h-2v-2l1-2 1-3 2-3 2-3 1-2 1-3 1-3 1-3v-3l1-4v-19l-1-4-2-4-1-4-3-4-2-4-3-6-3-6-1-4v-6l1-1h4l1 1q1 1 0 0v1l1 1 1 1 1 2 1 2 2 3 2 3 1 4 1 2 1 2v2q-1 1 1 3l1 2 1 3v3l1 4v22l1 4v2l-1 3v3l-1 4v2l-1 3-2 4-1 4-1 2-1 2-2 2-2-3-1-3h2l1 1 1 1v1q0 1 0 0t0 1-1 1 0 1h-1v1l-1-1q-2-1-1-2l1-2 2-3 1-3 1-2 1-3v-2h3l1 1v2l-1 1-1 2-2 3-2 4-2 2h-1l-1-1h-1v-4h1v-1h1q-1 1 0 0t2-3l1-5v-4l1-5 1-5v-5l-1-3v-4l-1-7-1-5v-1l1-1h2zm-214-45v9l-2 4-1 4q0 1 0 0t0 1h-1l-1-1v-2h2v1q0 1 0 0t0 1l-1 1-1-1v-1l-1-2v-5l1-3v-2l1-3 1-2v-1h3v1z"/><path fill="#e03131" d="m195 282 2 1 2 2v7l-2 4-2 3-2 2-3 3-3 3-2 1-2 1v1h-3q-1 0 0 0l-1-1v-1h-1v-2l1-1 3-1h4l1 1-1 1h-2v-2h2l1 1-1 1-1 2-2 1v1h-3q-1 0 0 0l-1-1v-1h-1v-2l1-1 1-1 2-2 2-2 3-2 3-3 2-3 2-2 1-2v-2h-1q-1 0 0 0l-1-1v-1q0-1 0 0v-1h1zm12 5-1 2v5l-1 3v2l-1 5-1 5v1-1 1l-1 1-1 1h-2v-1h-1v-1h-1v-3l2-3 2-4 3-3 2-4q1-2-1-2h1l2 2 2 2 2 1 3 3q2 2 1 3v1h-2l-1-1v-1h3q1 0 0 0v2h-2l-1-1h-1l-3-2-3-2-2-2-2-4v-3l1-2 3-1zl1 3v4l-2 4-2 4-1 4-1 2v1l-1 1-1 1h-2v-1h-1v-1h-1v-1l1-2h1-1v-6l1-3v-2l1-3 2-5 1-3 1-1h2v1l1 1z"/><path fill="#e03131" d="m202 290 2 1 4 1 5 1 5 1 5 2 6 1 7 1 4 1h1v1l-1 1q-1 0 0 0h-2v-2h2l1 1-1 1h-1l-3 1-8-1-7-1-5-2-4-1-5-2-4-1-2-1h-1v-3zm-41-159h-2l-2-1h-2v-2q0-1 0 0t1-1l3 1h3v1h1v1h-1zv-2h2q1 0 0 0l1 1v1h-1q-1-1 0 0zl-2-1h-4v-2q0-1 0 0t1-1h1l3 1h2l1 1v1l-1 1z"/><path fill="#e03131" d="M131 123h3l5 1 5 1 6 1 6 1 8 1 10 1h12l15 1 13 1 9 1 8 2q4 2 6 1l5 1 4 1 4 1 4 2 2 1 1 1-1 1q-1 1 0 0t-1 0-1 0v-2h1q1 0 0 0t1 0l1 1-1 1h-1l-2 1h-4l-4-1-4-1-5-2-6-1-8-1-8-1-13-1-15-1-13-1-9-1-9-1-6-1-6-1-6-2-4-1-3-1h-1v-2l1-1z"/><path fill="#e03131" d="m179 128 3 2q3 2 5 1l4 1 6 2q4 2 7 1l7 1 8 1 8 1 11 1 11 1h21l5-1 6-1h9l3-1 2-1h2q1 0 0 0h1q1 0 0 0l1 1v2l-1 1q-1 1 0 0h-4l-3-1h-1v-2h2l1 1-1 1h-2q-1 0 0 0t0-1v-1q0-1 0 0h1l2-1h5l1 1q1 1 0 0t0 1 0 1l-1 1q-1 1 0 0l-1 1-3 1-4 1h-4l-5 1-5 1h-27l-11-1-12-1-8-1-8-1-7-2-7-1-6-2-5-1-4-2-3-2-1-2v-2h2z"/><path fill="#e03131" d="m234 140 1 1 3 1 6 1 6-1h10l12-1 8-1h7l7-1 5-1 6-1 5-1 5-1 5-1 5-1 3-1h2l1-1h1l1 1v1h1v2l-1 1-2 1h-11l-1-1v-2h2v2l-1 1-1-1q0-1 0 0t0-1 0-1h1l3-1 5-1h2l1-1h1l1 1v1h1v2l-1 1h-1l-2 1-4 1-5 1-5 2h-5l-5 1-6 1-6 1-6 1h-8l-8 1h-34q-3 1-4-1l-2-2-1-1v-2z"/><path fill="#e03131" d="M284 142h7l12-1 8-1 7-1 7-1 7-1 6-1 8-1 9-2 5-1h8l4-1h3l1 1v1q0 1 0 0v2q0 1 0 0h-1v1h-16v-2l1-1 1 1v2h-2v-1q0-1 0 0t0-1 1-1l4-1 7-1h4l1 1v1q0 1 0 0v2q0 1 0 0h-1v1h-3l-3 1h-8l-5 1-9 2-9 1-6 1-6 1h-7l-7 1h-9l-11 1-8 1v-1h-1v-1h-1 1v-1z"/><path fill="#e03131" d="M317 140h8l6-1 6-1 7-1 7-1 6-1 6-1 8-2 7-1 4-1h4l2-1h2q1 0 0 0h2q1 0 0 0l1 1q1 1 0 0v3h-1v1h-2l-4 1h-7l-6 1-1-1q0-1 0 0v-1h1v-1h1v1h1v1l-1 1h-2v-2l1-1 5-1 8-3h4q1 0 0 0h2q1 0 0 0l1 1q1 1 0 0v3h-1v1h-3l-3 1h-3l-4 1-8 1-7 1-6 1-6 1-7 1-7 1-7 1h-15v-1h-1v-1h1v-1z"/><path fill="#e03131" d="M342 140h2l8-2 10-2 8-2 7-2 7-1q4 0 6-2l6-1 5-1 5-1h5l4-1 3-1h2-1 3v1h1v1q0 1 0 0v2l-1 1h-2l-2 1-6 1h-5v-2h2v1q0 1 0 0v1h-2v-2h1l3-1 4-2 3-1 1-1h2q1 0 0 0h1v1h1v3l-1 1h-2l-3 1-5 1h-6l-4 1-5 1-6 1-6 1-7 1-7 2-8 2-11 2-8 1h-2l-1-1v-1q0-1 0 0t0-1 1 0"/><path fill="#e03131" d="M428 122h1l2-1h3l1 1v1l-1 1h-5l-6-1h-7l-6-1-7-1-6-1-8-1-6-1h-6l-5-1h-10v-1h-1v-2q0-1 0 0v-2h1l1-1 2 1h33l6 1h13v1q0 1 0 0v1q0 1 0 0v1q0 1 0 0h-1v1h-7l-6 1h-16l-8 1-8 1h-8l-6 1-4 1-5 1-3 1-1-1v-1h1v-1l1 1 1 1h-1v1h-1l-1-1v-1h1v-1h1v1h1v1h-1v1q0 1 0 0t-1 0h-1 1q1 0 0 0l-1-1v-1h1v-1l2-2 4-2 5-1 7-1 7-1h9l8-1h8l7-1h12l1 1h2v1q0 1 0 0v1q0 1 0 0v1q0 1 0 0h-1v1h-18l-10-1h-14l-5 1h-7v-1h-1v-2q0-1 0 0v-2h1l1-1h1l4 1h5l5 1h5l7 1 7 1 7 2 6 1h6l7 1 5 1 3 1h3l1 1v1l-1 1-2 1h-5q-1 0 0 0v-1h-1v-1q0-1 0 0h1v-1zm-298 16 5-3q5-4 11-5t10-3l8-1 9-1 9-1h6l4-1h4l1 1q1 0 0 0t0 1v2h-1l-1 1h-3l-3 1h-1v-1q0-1 0 0h-1v-1h1v-1q-1-2 0 0t1 0h1v2h-1v1h-1v-1q0-1 0 0h-1v-1h1v-1l4-1 3-2h1l1 1q1 0 0 0t0 1v2h-1l-1 1h-7l-5 1-10 1-9 1-7 1-9 2q-6 1-11 4l-6 3h-1v-1h-1q-1 0 0 0v-1z"/><path fill="#e03131" d="m147 131 1-1q0-2 3-3l5-1 7-1h32l5 1h4l3 1h1l1 1v3h-1l-1 1h-4l-6 1-5 1h-22l-5-1h-7l-1-1q-1-1 0 0t-1 0v-2q0-1 0 0h1v-1h2l4-1 4-1h5l6 1h13l8 2 5 1h1v2h-2v-2q0-1 0 0t1 0h1v2h-6l-8-1h-13l-6-1h-5l-4 1h-4l-1 1-1-1q-1-1 0 0t-1 0v-2q0-1 0 0h1v-1h2l3 1h30l4-1h5l5-1 2-1 1 1v3h-1l-1 1-1-1h-2l-4-1h-14l-9-1h-14l-6 1h-4l-3 2-1 1h-2v-1q0-1 0 0zm41 53h-4v-1h-1v-2h2l2 1 6 3 7 3 7 2 6 2 7 1 6 2 9 1 8 1h17l2-1h1l1 1q1 1 0 0l1 1v1q0 1 0 0t0 1-1 0v1h-1l-2-1-4-2-3-1-1-1 1-1h1q1 0 0 0t1 0v1q0 1 0 0v1h-2l-1-1 1-1h1l5 1 3 1-1-1h1l1 1q1 1 0 0l1 1v1q0 1 0 0t0 1-1 0v1h-2l-2 1h-17l-9-1-9-2-6-1-7-1-7-2-7-2-8-4-5-4-1-1v-1h-1v-2h6v3z"/><path fill="#e03131" d="m192 185 4 1 8 2 8 1 8 1 9 1 8 1 11 1h11l7 1h13l3-1h5v1l-1 1h-1l-1-1v-1h2l1 1-1 1h-2v-2h2-1 2v1l-1 1-1 2-3 1-3 1h-13l-7-1h-11l-11-1-9-1-8-1-9-2-8-1-8-2-4-1h-1v-1l-1-1h1v-1h1z"/><path fill="#e03131" d="M231 191h-5l-2 1h-1v-1h-1v-2h1v-1h18l14 1h61l10-1h19l2-1h4v1h1v1l1 1-1 1q-1 1 0 0t0 1-1 0v1h-1l-1-1-4-1h-20l-7 1h-8l-7 1h-6l-7 1h-28l-3 1h-3v-1q1-1 0 0t0-1 0-1h10l8 1h11l9 1h33l7-1h11l4-1h2v1h1v1h1v1l-1 1-1 1-2-1h-3l-2-1h-1v-2h2v2h-2v-2h4l3-1h1v1h1v1h1v1l-1 1-1 1h-5l-6 1h-37l-9-1h-9l-11-1h-9l-3-1h-6v-1q1-1 0 0t0-1 0-1h2l4-1h20l8-1 7-1h6l7-1h7l7-1h9l8-1h4l3 1h3v1h1v1l1 1-1 1q-1 1 0 0t0 1-1 0v1h-15l-10 1h-59l-12-1-14-1h-18v-1h-1v-2h1v-1h9q1 0 0 0h1v2l-1 1zm-10 28v12l1 3v26l-1 2q-1 1-1-1v-7h2l1 1v1h-1v1h-1v-1h-1v-2h1q1 0 0 0h1v1h1v6l-1 3q-1 2-2 0t-2-3l-1-4v-32l1-4v-3h2z"/><path fill="#e03131" d="m222 215 1 1 1 4v11l-1 6v22l1 3v10h-1v1h-1v-1h-1v-1h1v-1h1l1 1q0 1 0 0t0 1h-1v1h-1v-1h-1v-3l-2-4v-6l-1-3v-12l1-7v-6l1-4v-9l-1-2v-1l1-1h2q1 0 0 0zm17 0 1 3v5l1 5-1 4v8l-1 4v8l-1 4v4l1 4v6l-1 1h-1q-1 0 0 0h-1v-2h1q1 0 0 0h1l1 1-1 1q-1 1 0 0h-2v-1q0-1 0 0v-1h1q1 0 0 0h1l1 1-1 1h-1q-1 0 0 0h-1v-1l-1-2-1-4v-16l1-4v-8l1-4v-18h2q1 0 0 0t1 0 0 1"/><path fill="#e03131" d="m240 212 1 2 1 2v17l-1 5-1 6v5l-1 4v20l-1 4v4h-2l-1-1 1-1h2v2h-1q-1 0 0 0h-1l-1-1v-1h3q1 0 0 0t0 1v1h-2l-1-1-1-3-1-4v-16l1-5 1-4v-4q-1-2 1-6t1-6v-6l1-6-1-3v-5l1-1q0-1 0 0h1zm-24 105v28l1 5v7l1 7v8l1 3-1 5-1 3v1h-2v-1q0-1 0 0v-1l1-1 1 1v2h-2v-3l-1-3v-6l-1-3v-12l-1-7v-23l1-7v-4l1-1h1l1 1z"/><path fill="#e03131" d="M217 325v62l1 4v24l-1 3v14h-1v1h-3v-1l-1-1h5v1h-1v1h-2l-1-1v-1l1 1q2 0 2 2v5l1 1h-1q-1-1 0 0v1h-3v-7l1-2v-1h2l1 1v1h-3v-2h2l1 1v2l-1 4 1 2h-1q-1-1 0 0v1h-3v-2l-1-2v-6l3-1 2 1v1h-1v1h-2l-1-1v-1h4v1h-1v1h-3v-1l-1-1v-8l1-4v-24l-1-4v-38l1-11v-18h1v-1h3v1zm17-6 1 3v49l1 5v10l1 6v13l-1 3v2l-1 2v3l-1 3 1 3v14h-2q-1 0 0 0t0-1v-1h2v2h-2v-1l-1-1v-3l-1-2v-7l-1-2v-4l1-3v-6l1-3v-11l-1-5v-6l-1-4v-44l1-11v-4l1-1q1-1 0 0h1q1 0 0 0h1v1zm-15 148v18l1 5v28h-4v-1h-1v-1l1-3 1-3h1q1 0 0 0v-1h1v1h1v1l-1 1q-1 0 0 0h-1v-1h-1v-1h1v-1h1v1h1v8h-4v-1h-1v-31l-1-5 1-9 1-6v-1h2l1 1zm18 0v2l1 4v8l-1 6v8l-1 3v3l-1 3-1 2v1h-2l-1-1 1-1h2v2h-2l-1-1v-2l-1-4v-2l1-4v-3l1-5v-5l1-5v-7l1-2v-1h3z"/><path fill="#e03131" d="m195 506 6 3q6 3 10 3l5 1h5l4-1h5q3 0 5 2l2 1v2h-2q-1 0 0 0v-2h2v2h-11l-5 1h-5l-7-1-10-4-6-4h-1v-2h1v-1zm76-41v31l1 1v1h-1v1h-1v-1q1-1 0 0t-1 0 0-1 1 0v-1h1l1 1v1h-1v1h-1l-2-3-2-4v-18l1-6 1-3v-1h3zq-1 1 0 0m12 3 1 3v15l-1 4v3l-1 4-1 4v3h-1v1h-1q-1 0 0 0v-1h-1v-1l1-1h1v1h1v1h-1v1h-1v-1h-1v-1l-1-1v-9l1-4v-4l1-4v-5l1-5v-3l1-1h1q1 0 0 0zm-17-148v-3q0-1 0 0h1v-1h2q1 0 0 0v1h1v11l-1 6v20l1 8v7l1 9 1 10v8l1 7 1 7v5l1 5-1 5v3h-1v1q0 1 0 0h-1v-1h-1v-1h1v-1h2v2h-1v1h-1v-1h-1v-3l-1-4-1-5-1-6-1-6v-8l-1-8-1-9v-10l-1-7v-22l1-6v-6l1-7v-4q0-1 0 0h1v-1h2q1 0 0 0v1h1v1l-1 2v1l-1 1h-2v-1zm24-5v5l1 12-1 9v14l-1 9v10l-1 6v6l-1 5v34l-1 2-1 1-1-1v1h-2v-1h-1v-1q0-1 0 0h1q1 0 0 0v-1h1v1h1v1l-1 1q-1 0 0 0h-1v-1h-1v-1h1v-1h1l1 1v2h-2v-1h-1v-1 1-2l1-3v-3l-1-4v-16l1-3v-10l1-6v-6l1-10 1-9v-7l1-7v-26l1-1v-1h2v1z"/><path fill="#e03131" d="m275 430-1 1 1 2h2l1-1q1-1 0 0h1l1 1v2l-4-2-3-3v-2h2v3zl-1-1v-2h1q1 0 0 0h1l1 2q1 3 2 2h1l1 1v2l-1 1-3 1h-2l-2-1-1-2v-3l1-2 1-1h2v2zm-8-112 1-2 4-3q4-2 6-1l3 1h1v2h-3v-1l1-1h2v2h-3l-4 1-4 2-1 2h-3zm-5-104v21l1 8v9l1 3 1 2 1 3v3l1 1v2q0 1 0 0h-2v-2l1-1 1 1v2h-1l-2-1-3-3-1-3-1-3-1-3v-5l-1-5v-8l1-14 1-7v-1h1v-1h1v1h1z"/><path fill="#e03131" d="m265 235-1 2-1 4 1 4v31l1 2 1 3 1 3v1q0 1 0 0v2h-1v1h-3v-1h-1l1-3 1-3h2q1 0 0 0t1 0v1l-1 1h-2v-1q0-1 0 0v-1h2l1 1v3q0 1 0 0v2h-1v1h-3v-1h-1v-1l-1-1-1-3-1-3v-37l1-4 1-3 1-1v-1h2v1h1zq0 1 0 0m24-27-1 5-2 14-1 19v12l-1 5v7l-1 3v1q0 1 0 0h-2v-2l1-1 1 1v2h-2v-1l-1-2-1-3v-6l1-4v-12l2-19 2-15 1-5 1-1h1l1 1zm-25 3 1-1v-2h3v1h1v2l-2-1-2-1h1v-1h1l1 1 1 1v1l-2-1v-2l3-1h3l3 1 2 1 1 1-1 1h-2q-1 0 0 0v-2q0-1 0 0t1 0 1 0h1v1l-1 1q-1 0 0 0h-1q-1 0 0 0h-11l-1-2q0-1 0 0h1v-1h1l1 1 1 1v1l-2-1-2-1v-1h3v1h1v2l-1 1h-1v1q0 1 0 0t-1 0h-1v-1zq-1 0 0 0"/><path fill="#e03131" d="m263 281 4-1 7-1h4l1 1-1 1q-1 1 0 0t-1 0h-1v-1q0-1 0 0v-1h2l1 1-1 1-3 2-7 1h-7v-2l1-1zM229 96l-1 4-2 6-1 4v6h-1v1h-1v-1h-1v-1l1-1h1v1h1v1h-1v1h-1l-1-1q-1 0 0 0l-1-3v-4l1-4 3-6 1-4h3zq0 1 0 0m13 1-1 3-2 4v8l-1 4v8l-1 3v1h-2v-2q0-1 0 0l1-1 1 1v1q0 1 0 0t0 1h-2v-1l-1-3-1-5v-3l1-4v-5l1-4 2-5 1-2 1-1h2l1 1zm20-4v5l2 10 1 6 1 6v6l-1 2v1q0 1 0 0h-2v-2h2v2h-2v-1l-1-2-1-5v-6l-1-7-1-9-1-6h1v-1h2zm18 6 2 4 1 8 1 8-1 4v5l-1 4-1 1q0 1 0 0h-1v-1q0-1 0 0t-1 0v-1q0-1 0 0h1v-1h1l1 1v1h-1v1l-1-1q0-1 0 0h-1v-20l-1-8-1-4q0-1 0 0v-1h1v-1h1zm23 3v2l1 10 1 10v2l-1 1h-2v-2h2l1 1-1 1h-2v-1l-1-2-1-10-1-9v-4q0-1 0 0h3zm16-12v1l2 3 1 3v7l1 3v10l-1 3h-1v1h-1v-1q0-1 0 0t-1 0v-1h1v-1h1q1 0 0 0t1 1 0 1h-1v1l-1-1h-1v-3l-1-4V98l-1-3-1-3v-3h1v-1h1v1q-1 1 0 0zq1 0 0 0m-15 123 1 6 2 12 1 10 1 7v34l-1 1-1-1v-2h1q1 0 0 0h1v2l-1 1-1-1-2-2q-2-2-1-4v-28l-1-7-1-9-1-12-1-7h1v-1h2zm28 1 1 3 1 5v29l-1 10-1 7 1 5-1 4v4h-2l-1-1 1-1h2v2h-2q-1 0 0 0h-1v-1l-1-2-1-5-1-5 1-7 1-10 1-11 1-7v-6l-1-5v-9h1v-1h1l1 1zm-18 104v43l1 7v20l1 8v13l1 5-1 5v4h-2l-1-1 1-1h1q1 0 0 0t1 0v2h-2l-1-1 1-1h2v2h-2l-1-1-1-3-1-4-1-6v-13l-1-8v-19l-1-8v-7l1-8v-15l1-9 1-4v-1h1l1-1v1h1q1 0 0 0zq0 1 0 0m26 5v18l-1 8-1 8-1 9-1 9-1 9-1 6-1 5-1 4-1 13-2 13v6l-1 3v1l1 1v1h-3v-2h2l1 1-1 1h-1l-2-2-2-4v-6l2-14 1-13 1-4 1-5 1-6 1-9 1-9 2-8 1-9 1-7 1-9 1-7v-3q0-1 0 0l1-1h1q1 0 0 0h1v1z"/><path fill="#e03131" d="m315 428 3 1h4l3 1h3v1h1v1h-1q-1 0 0 0t0 1h-1q-1 0 0 0v-1h-1v-1l1-1h1v1h1v1h-1v1l-2 1h-6l-4-2-2-1h-1v-3zm5-102v-4l1-3 3-2h2l4 1 2 2q0 1 0 0v2h-2v-1h-1v-1h1v-1h1v1h1v2h-7q-2 0-1 2v3h-1v1h-2q-1 0 0 0t0-1zm-123-23 1 2 2 3 2 3 2 2 1 3v9l-1 1q-1 1 0 0t-1 0h-1v-1q0-1 0 0v-1h1q1 0 0 0h1l1 1-1 1h-2v-4l-1-4-1-3-1-2-2-3-2-4-1-2v-3h2q1 0 0 0z"/><path fill="#e03131" d="m196 303 1 1 2 4 2 4 1 2 1 3 1 4v3l1 3v8l-1 5v4h-2l-1-1q-1 0 0 0t0-1h1v-1h1v1h1v2h-2v-1h-1v-3l-1-4v-11l-1-4v-3l-1-2-1-3-2-4-1-4-1-1v-1l1-1h2z"/><path fill="#e03131" d="m199 309 1 2 2 3 2 6 2 8 1 8 1 5-1 5v12l-1 3v10l-1 4v1h-2v-2l1-1 1 1v2h-2q-1 0 0 0v-1l-1-4v-21l1-4v-4l-1-5-1-8-1-8-1-5-2-4v-1l-1-1 1-1 1-1z"/><path fill="#e03131" d="M208 354v3l-1 8-1 7-1 5-1 5-1 4-3 5-2 3h-1v-1q0-1 0 0v-1l1-1 1 1v2h-2q-1 0 0 0v-2l1-1-1-2 1-4 1-4 1-3v-3l1-4 2-7 1-7v-4l1-1q0-1 0 0t1 0h1v1zm144-56h-1v1h-2v-1l-1-1h1v-1h2z"/><path fill="#e03131" d="m350 297 1 2 2 4 2 4 2 3 1 4 1 3v6h-2v-2h2v1q0 1 0 0v1h-2v-2h2v2h-2l-1-2-1-3-1-4-1-3-1-3-2-3-2-4-1-3v-1z"/><path fill="#e03131" d="m352 302 1 2 1 8 2 7v20l-1 2v1h-2v-2l1-1 1 1q0 1 0 0v2h-2v-1l-1-2v-19l-1-7-1-8-1-2v-1q0-1 0 0l1-1h2z"/><path fill="#e03131" d="M355 312v2l1 4 1 6 1 4v31l-1 2v1h-2v-2l1-1 1 1q0 1 0 0v2h-2v-1l-1-2v-35l-1-5-1-5v-2q0-1 0 0v-1h1q1 1 0 0h1z"/><path fill="#e03131" d="m357 341 1 2v16l-1 6v5l-1 4-1 4-1 3-1 2h-2v-2h1q1 0 0 0h1v2h-2v-8l1-3v-3l1-4v-10l1-3v-9l1-3v-1h2v1z"/><path fill="#e03131" d="M357 363v5l-1 3v3l-1 4-2 4-1 3v1h-2q-1 0 0 0t0-1h-1v-1h1v-1h1v1h1v2h-2v-1h-1v-5l1-3v-2l1-3 1-4 1-4 1-2 1-1h1q1 0 0 0l1 1z"/><path fill="#e03131" d="m352 385-2 2-1 3-1 1q-1 0 0 0l-1 1h-1v-1h-1v-1q0-1 0 0v-1l2-3 3-4q1 0 0 0h2v2q0 1 0 0t-1 0h-1l-1-1 1-1h2v1q0 1 0 0zl-2 3-2 4-1 1h-1v-1h-1v-1q0-1 0 0v-1h1v-2l2-2 1-2v-1h1v-1h1l1 1v1q0 1 0 0zm-30 81v14l-1 2v10h-1q-1 0 0 0t0 1h-1v-1h-1v-1l1-1h1v1h1v1h-1v1h-1v-1h-1l-1-3-1-5v-5l1-3v-4l1-5 1-2 1-1h2v1zm12-2 2 4 1 5 1 5v13l-1 3v8h-1q-1 0 0 0t0 1-1 0v-1h-1v-2h2l1 1q1 0 0 0v1h-1v1h-1q-1 0 0 0t0-1-1 0l-1-3-1-5v-4l1-4v-12l-1-5-1-4v-2h3zm-67 47 3 1 5 1h3l2 1 1 1q1 0 0 0v1h-1q-1 0 0 0t0 1-1 0v-1h-1v-1l1-1h1v1h1v1h-1v1h-4q-4 0-7-2l-3-1h-1v-2h1v-1zm54-5 1 2 3 1h4l3-1h8q1 0 0 0v3h-1l-1-1v-2h2v2l-1 1-2 1-4 1h-9q-4-1-5-3-2-2-1-4l2-3h2v1h1q1-1 0 0v2zm98-376 4-2q4-3 7-3t6 0l4 1 4 2 2 2 1 1q1 1 0 0v1h-1q-1 0 0 0v1h-1q-1-1 0 0v-1h-1v-1l1-1h1v1h1v1h-1q-1 0 0 0v1h-1v-1h-3l-3-1-4-1h-4l-7 1-4 2h-2v-3z"/><path fill="#e03131" d="m425 124 3-1h10l5 1 4 2 4 3 3 5 2 5v6l-1 6-1 3h-1v1q0 1 0 0h-1v-1h-1v-1h1v-1h2v2h-1v1h-1v-1h-1v-13l-2-4-2-3-2-3-4-1q-3 0-4-2t-4 0h-9v-1h-1v-2h1v-1z"/><path fill="#e03131" d="M449 126v1l2 3 1 5 2 6 1 5 1 8v9l-2 6-2 5-2 5-2 4-3 4-2 2-2 1-1 1-1-1v-2h2v2l-1 1q-1 0 0 0l-1-1v-3l1-4 2-3 2-4 3-4 1-4 2-5v-15l-2-6-1-5-1-5-1-3v-3l1-1h1l1 1q1 1 0 0zm-296 2-1-1-3-2v-3l2-2 3-1h8l4 1 2 2v3l-3 3-3 1-4-1-4-1-3-2-1-4q0-3 2-2h4l2 1h4q2 0 3 2t2 3-1 3l-3 1-6-1zv-1q0-1 0 0l1-1q1-1 0 0l1 1v2h-2zv-1l1-1h3l4 1h1l-4-1-4-1q-3-1-2-2t1-1 3 2 4 1h-6l-2 1v-1h2l1 2q0 1 0 0t0 1v1h-1q-1 0 0 0t-1 0z"/><path fill="#e03131" d="M152 116v-1l1-3v-2l1-2v-1h1v-1h2v1h1v4l1 3v5l1 2h-1v1l-1 1h-1q-1 0 0 0h-1v-1h-1v-1l1-2v-8h1v-1h2v1h1v2l-1 3v7h-3l-2-3-2-3zv-1h1v1q0 1 0 0t1 1h-1v1q0 1 0 0h-1l-1-1zh1v1l3 2 2 2v3h-3v-1l-1-2v-6l1-2v-1h1v-1h2v1h1v10h-1v1l-1 1h-1q-1 0 0 0h-1v-1h-1v-1l-1-2v-5l1-3v-2l-1-2h1v-1h2v1h1v2l-1 1-1 3-1 3v1h-1v1h-2v-1zm5 73 1 2v6q0 1 0 0v1h-4v-4l1-3 1-3v-2h1l1-1h2v1h1v1q0 1 0 0v1l-1 2v5l-1 1h-2l-1-1v-1h-1l1-2zl1-1q1 0 0 0l1-1q1 0 0 0h1l1 1v2h-7v-1h-1v-1l1-1h1zv1h-1v-1h-1q-1 0 0 0v-1l1-1h1zh2l1-1q1 0 0 0h1l1 1v2l-1 1-1 2v1q0 1 0 0t-1 1-1 0-1 0-1-1 0-1h-1 1v-1l-1-3 1-2v-2h1l1-1h2v1h1v1q0 1 0 0v2l-1 1-1 3v2l-1 1v1q0 1 0 0v1h-4v-2l-1-1 1-3v-4h2zm246-64-1-5v-6l-1-3-2-2v-4l1-1h3l1 1v1l-2-1q-2-1-1-2h2v-1h3l1 1v4l-3-2q-2-2-1-3h3v1h1v3l-1 1v-3q0-4 1-1 2 0 3 2l2 3-1 3-1 4-2 3-1 3-1 3v5q0 1 0 0h-3v-5zq1 0 0 0v-1h1v1h1v2h-2zq-1 1 0 0h1v-1h1v1h1v2h-2zq1 0 0 0v-1h1v1h1v-1q0-2 1-1v3l-1 2v2q0 1 0 0h-3v-1h-1v-2l-1-3 1-2 1-3 1-2 1-3 1-2v-2l-2-4q-2-2-1-3h3v1h1v3l-1 1-2-2-1-3h3l1 1v4h-8v-2l1-1h3l1 1v2l1 1 1 3 1 3-1 6v6h-3z"/><path fill="#e03131" d="m401 104-1-2-1-3v-4l2-2h2l2 3 1 3 1 2v4h-1v1h-2l-1-1v-2l2-2-1 2-1 1v1h-1zv-1h2v2q0 1 0 0v1h-1zv-1h2v3h-1zv-1l2-2q1-2 3 0t1 3v-1 3h-1v1h-2l-1-1v-1l-1-2v-3q0-1 0 0t1 3v2q0 1 0 0v1h-2zm9 84v2l-1 4v3l-1 3v2h-1v1h-2v-1h-1v-5l1-3v-3l-1-2v-2q1-1 0 0v-2h1v-1h2l1 1v2l-1 4v3l-1 2-1 2v1q0 1 0 0h-2v-2q0-1 0 0h2v2h-2v-1l-1-2-1-3v-3l2-3q2-2 1 0 0 1 0 0v-2h1v-1h2l1 1 1 1v1l1 3-1 3-1 4v5h-1v1h-2v-1h-1v-7q0-3 2-5v-3h1v-1h2v1zM223 83l1-1 3-1h4l5 1 4 1 4 1h5l3 1h5l8 2 4 1h1v2l-1 1h-1v-1h-1v-1h1v-1h1l1 1v1h-1v1h-1l-4-1h-12l-4-1h-4l-5-1-4-1-5-1-4-1-1 1h-1v-1h-1v-1q0-1 0 0z"/><path fill="#e03131" d="m234 81 1 1 4 1h4l5 1h12l7 1 4 1 3 1 3 3 2 3h-1v1h-1l-1-1v-1h1v-1h1v1h1v1l-1 1h-2v-1l-1-1-2-1-3-2h-3l-7-1h-7l-5-1h-5l-5-1-4-1-1-1h-1v-3z"/><path fill="#e03131" d="m226 79 2 1h6l6 2q5 2 7 1t5 0h6l6 1h10l4 1 3 1 3 3 2 2v1q0 1 0 0h-1v1h-1v-1h-1v-1h1v-1h2v2h-1v1q1 1 0 0h-1v-1h-1v-1h-3l-3-1h-8l-5-1h-12l-6-1-7-1-6-2-3-1h-3l-3-2-1-1-1-1v-1l1-1h2z"/><path fill="#e03131" d="M284 89h1v2l-1 1v1h-4l-1-1v-3l1-1h1l1-1h1zl1 1v2l-1 1v1h-4v-1h-1v-3l1-1 1-1h2z"/><path fill="#e03131" d="m250 84 5 1 6 1 6-1h6l7-1 6-1 6-1 5-1 4-1h10l4-1h3l1 1-1 1h-1l-1-1v-1h2l1 1-1 1h-2q-1 0 0 0v-2h2-1 1l1 1-1 1-1 2-2 1-4 1h-9l-4 1-5 1-6 1-7 1h-6l-7 1h-6l-7-1-4-2h-1v-1h-1l1-1q0-1 0 0z"/><path fill="#e03131" d="M291 86h2l8-2 6-1 5-1 4-1 3-1 3-2 3-1 3-1 2-1 1-1 2-1q1 1-1 3l-3 1-3 1-3 1-4 1-3 1-2 2h-3l-2 1h-6v-3h1l1 1v2h-2v-2l1-1 1 1v2h-2v-3h1l1-1 2-1 2-1h2l3-1 4-1 3-1 3-2 3-1 2-1 3-1h3l2 2v2l-1 3-1 1-3 2-2 1-3 1-3 1-4 1-3 1-4 1-5 1-7 1-7 1h-4v-1h-1v-1h1v-1z"/><path fill="#e03131" d="M330 79h-2l-3 2-2 1-4 1-5 2-8 3-8 2-6 2-6 1-5 1h-4l-4 1-4-1h-4l-6-2-6-1-3-1h-12l-4-1-3-1-3-1-3-1-3-2-3-2q-2-1 0-4 0-2 2-3l2 1 3 1 3 2 2 1 3 2 3 4 2 3v1l-1 1h-2v-2h2l1 1v1h-3l-1-1-2-2-2-2-3-1q-2 0-2-2l-3-1q-2-1-1-3t2 0 2 2l3 2 4 1 3 1h3l3 1h12l6 2q4 2 6 0l3 1h7l4-1h5l6-2 5-1 9-2 8-3 4-1 4-2 3-1h7v2zm-66-53-1-1-1-3v-9l1-1h1q1 0 0 0h1l1 1q1 1 0 0v1-1q-1-1 1-1l3-1 3-1 4-1h12l2 2 1 2v9l-1 3q-1 2-4 2l-1-1 2-1h-1v-3h1-1v1-1h2v2l-1 1q-1 0 0 0l-1-1v-2h2v2l-1 1h-1v-3h1v2q1 2 0 0l-1-2v-6l-1-2h-10l-4 1-4 2h-3q-2 0-3-2v-2l1-1h2l1 1q1 1 0 0v9l1 2v2z"/><path fill="#e03131" d="M289 22v1l1 1-1 1v1h-1l-1 1h-2v-1l-1-1v-2l1-1v-1h3zl1 1v1l-1 1-1 1h-2l-1-1h-1v-4h1v-1h3z"/><path fill="#e03131" d="m273 18 3-1h9l4 2v3l-3 1-4 1h-3l-3 1h-3l-3-1-1-3 1-2zl4-1h4l3-1h3l2 1q0 1 0 0h1l1 1v2h-1l-1 1h-8l-3 1h-3l-2 1h-3l-2-1h-2v-1h-1l-1-1q0-1 0 0v-3h1v-1h1q1 0 0 0l4 1zv1h1v1h-1v1h-1l-1-1zq1 0 0 0t1 0v1h1v1h-1v1h-1v-1h-1q-1 1 0 0v-2zv1h1-1zv1h1v1h-1q-1 0 0 0v1h-2l-4 1-3-1h-1l-1-1q0-1 0 0v-3h1v-1h1q1 0 0 0l1 1h7l3-1h8l4 1q0 1 0 0h1l1 1v2h-1l-1 1h-11l-4 1-2-1 2-1h7l3-1h3v1l-2 1h-11l-1-1v-2q0-1 0 0z"/><path fill="#e03131" d="m277 10 2 1 3 2 2 2h1q-1 0 0 0l1 1v1q0 1 0 0t0 1v1h-2l-1 1-3 1-3 1-4 1h-3l-3-3v-3l2-1 3-1 3-1 2-1h3q2 1 4-1l3-1h4v1h1v2l-1 1-1 1h-2l-4 1-3 1-4 1-4 2-3 1h-1l-1 1-1-1v-2q0-1 0 0h2v2q0 1 0 0l-1 1q-1 1 0 0l-1-1v-1q0-1 0 0l1-2q1-2 3-2l4-2 5-2 3-1 3-1h5v1h1v2l-1 1-1 1h-2l-3 1-3 1h-3l-3 1-2 1h-2l-2-1 1-1h3l2-1h3l4-1 2-1 1 1v1q0 1 0 0t0 1v1h-2l-2-1-2-1-3-3-2-1v-1h-1v-1l1-1z"/><path fill="#1e1e1e" d="m192 307 2 2 3 4 1 3 1 4 1 3 1 4v12l-1 3v1q0 1 0 0h-2l-1-1 1-1h2v2h-2l-1-1v-4l-1-4v-3l-1-3v-4l-1-3v-3l-1-2-2-4-2-3v-1q0-1 0 0v-1h1l1-1v1z"/><path fill="#1e1e1e" d="m192 309 2 2 2 5 2 4 1 5 2 5 1 5v23l-1 7-1 6-1 3-2 3-2 3h-1v-1h-1v-1h1q1 0 0 0v-1h1v1h1q1-1 0 0t0 1l-1 1q-1 0 0 0h-1v-1h-1v-1h1v-6l1-2 1-5v-29l-1-5-1-4-1-5-2-4-1-5-1-3v-2h3q1 0 0 0z"/><path fill="#1e1e1e" d="M204 357v3l-1 5-1 4-1 3v4l-1 3-1 2v3l-1 3-2 3-1 1h1-1v1h-1v1h-2l-1-1-1-1q-1-1 0 0v-1l1-2 2-3 1-1v-1h2v1h1v3h-1q-1 0 0 0l-1 1v-1h-1v-1h3v1h-3v-1h1l3 1v2l-1 1-1 1q-1 0 0 0t-1 0-1 0v-1h-1v-3l2-3q2-2 1-3l2-2 1-2 1-3 2-3 1-4v-15l-1-4-2-4-1-4-1-4v-5l-1-5-1-2-2-3-2-2-2-2-2-2-1-3-1-3-1-1q1 0 0 0v-1h-1v-1h-1v-2l1-1v-1h2l2 2 1 4v4h-2v-2l1-1h1v3h-2q-1 0 0 0v-1l-2-1-1-3v-1l1 2v-1h-1v-1h-1v-2l1-1v-1h2l2 1 3 3 1 3 1 3q0 2 2 2t2 2l3 3 2 3 1 3v5l1 5v3l1 5 2 4 1 5v16l-2 5-1 4-2 3-3 4-2 3v2l-1 1-1 1q-1 0 0 0t-1 0-1 0v-1h-1v-3l2-1h2v1h-3v-1h3v1h-1q-1 0 0 0l-1 1v-1h-1v-4h2q1 0 0 0v1h1v1l-1 1v5h-1v1h-1v1h-2l-1-1-1-1q-1-1 0 0v-1l1-2 1-3 1-4 1-4 1-2 1-4v-3l1-4q0-3 2-5l1-4 1-1h2l1 1v1z"/><path fill="#1e1e1e" d="m189 303 1-1 3 3 4 5 2 4 2 4 2 6 2 8 1 10v6l-1 6-1 5v7l-1 4-1 6-2 3h-2v-2h2l1 1q1 1 0 0l-1 1h-2v-4l-1-5v-4l1-4v-4l1-4v-20l-2-8-1-5-2-4-2-4-2-4-2-3v-1h-1v-2h1zm-41 28 1 2-1 3h-13l-1-1-1-1v-2l1-1 1-1 2 1 3 1h2q1 1 2-1t1 0h1zl1 1h-1v1h-1l-1-1q0-1 0 0v-1h1v-1zh1v1l-3 3-3 2h-5l-2-1-1-1-1-1v-2l1-1 1-1h3l3 1h5q2 0 1 2t-1 0h-1v-2h1v-1z"/><path fill="#1e1e1e" d="m142 338 1-2 1-2 3-1 1 1h1v1h1v1q0 1 0 0l-1 1q-1 1 0 0l-1 1q-1 1 0 0t-2 0l-2 1q-1 0 0 0h-1zh2v2h-2q-1 0 0 0zl3-2 2-1h1v1h1v1q0 1 0 0l-1 1q-1 1 0 0l-1 1q-1 1 0 0t-1-1h-1l-1 2-1 1-1-1z"/><path fill="#1e1e1e" d="M148 336v-3l1-1h2l1 1v14l-1 3v2l-1 1h-2v-2h2l1 1-1 1q-1 0 0 0h-2v-1q0-1 0 0v-1h2l1 1-1 1h-2v-1h-1l-1-2v-3l1-3v-9l1-2 1-1h2l1 1v1l-1 1v2h-1l-1 1v-1h-1z"/><path fill="#1e1e1e" d="M148 349v-5l-1-1v-2h1q1 0 0 0h2v14l1 2v2h-1l-1 1h-1l-1-1-1-1 1-1v-2h1v-1h3v2l-2 1h-1q1 0 0 0h-1v-3h1v-1h1v3q1 2-1 3l-4 1h-4l-4-1-3-1-1-1v-1h1v-2h4l1 1v1h1q1 0 0 0v4h-1l-1 1h-1l-1-1q0-1 0 0l1-2 3-2v3l-1 1-1 1h-2q-1 0 0 0l-1-1-1-2v-3l1-3v-17l1-2 2 2 1 3 1 3v2l1 3v5l1 1-1 1h-2v-2h2l1 1-1 1h-2l-1-3-3-4v-3l-1-2-1-4v-4l1-3 3-1q2 0 3 2t1 3 0 4v13l-1 3v5l-1 1-1 1h-2q-1 0 0 0l-1-1 2-2 3-2v4h-1l-1 1h-1l-1-1q0-1 0 0l-2-1-1-2v-1h1v-2h4l1 1v1l1-1h4l3-1 1 2 1 1h-1v-3h1v-1h1l1 1-1 1-2 1v-1h1v-1h3v5h-1l-1 1h-1l-1-1-1-1h1l-1-1v-9l1-4v-3h1q1 0 0 0h2v1h1v2l1 3v3h-1v1h-2v-1zq-1 0 0 0"/><path fill="#1e1e1e" d="M143 339v4l1 3v6q0 2-2 2t-1-2l1-2 1-3 1-4v-2l1-1 1-1h1q1 0 0 0h1v1h1v4l-1 3-1 3v4l-1 5-1 1-1 1q-1 1 0 0h-1q-1 0 0 0t-1 0v-2h2l1 1-1 1h-2q-1 0 0 0v-1l-1-2v-7l1-2v-3l2-3v-2l1-1 1-1h1q1 0 0 0h1v1h1v3l-1 1v3l-2 4-1 3q-1 2-3 2t-3-2v-14l1-2v-1h2q1 0 0 0l1 1zM272 16v2l-1 4v2h-1v1h-1v-1h-1v-1l1-1h1v1h1v1h-1v1h-1l-1-1v-1l-1-2 1-4v-2h1v-1h2q1 0 0 0v1h1z"/><path fill="#1e1e1e" d="M268 17h2l4-1h7l3 1h1l-1-4q0-2-1 0l-2 1-2 1-2 1-3 1h-5l1 1h-1zl-1-1v-2q0-1 0 0l1-1 1-1q1 0 0 0l2-1 4-2h10v4l-1 1q0 1 0 0t-1 0l-1 1-2 2-3 1-3 1-2 1h-6l-1-1v-1q0-1 0 0v-2q0-1 0 0t1-1h1l2-1h4l5 2 3 1h1v2h-2l-1-1 1-1h2v2h-2l-1 1h-13l-1-1v-1q0-1 0 0v-2q0-1 0 0t1-1h2q1 1 2-1l3-1 4-1q2 0 2-2t2-1 2 0h2v4l-1 1q0 1 0 0t-1 0h-5l-3 1-3 2-2 1h-1zl-1-1v-2q0-1 0 0l1-1 1-1q1 0 0 0l2 1h1l1-2 3-1 4-2 3-1h3l2 3 1 3v7l-1 2h-3l-4-1-3-1-4 1h-8v-3h1q1 0 0 0t0-1zM149 125l2-1h10l3 1h2v4h-1l-1 1h-2l-5 1h-6l-2-1q-2-1-2-3zl3-1 3-1h1-6q-1 0 0 0h-1v-1h-1v-3l1-1h3l4 1 3 1 1 2q-1 1 0 0l2-1h1v1h1v2l-1 1h-1v1h-10l-1 1zl-1-1v-1l1-1v-1h6l6 1 4 1q1 0 0 0h1v1l-1 1h-2v-2h2l1 1v1h-2l-3 1h-11zl-1-1v-1l1-1v-1h2-1 1l3-1 4-1h3l2 1h1v1h1v2l-1 1h-1v1h-1l1-1h-5l-3-1h-2l-2-1q-1-1 0 0h-1v-1h-1v-3l1-1h8l2 1 2 1 2 2-1 2-2 3-3 1h-4l-2-1v-1h5l4 1 3-1h3v4h-1l-1 1-1-1h-2l-3-1h-10q-1 0 0 0zm62 5v-2l3-3 3-1h3l3 1 2 2v3l-1 2-3 2-4 1-3-1-2-1-2-1-2-2v-3q1-3 3-3l3 1 3 2 2 1h3l1 1h1l1 1v3h-1v1h-10l-3-1-2-1h-1v-1l-1-1 1-1v-1q0-1 0 0h1l1-1h1v1l2-1 4 1h6l2-1h1v1h1v4h-1v1h-14l1-2 1-1v1l-1 1q-1 0 0 0h-1zv-1l1-1v1h1q1 0 0 0t0 1l-1 1q-1 0 0 0h-1zh-1zv-1h1l1 1v1-1 1l-1 1q-1 0 0 0h-1l-2 1q-1 2-2 0v-3l3-2 3-1h12v1h1v4h-1v1h-16l-2-1q-1 0 0 0t0-1l-1-1 1-1v-1q0-1 0 0h1l1-1h1v1h3l3 1h7l1 1v3h-1v1h-3l-4-1-3-2zv-2q1-2 2-1l2 1 2 1q2 0 0 0l-2 1v2h-1l-1 1h-1v-1h-1zm-58 59 1 1 1 3 1 2v3h-1v1h-1l-1 1q-1 0 0 0l-1-1h-1v-1h-1v-2l1-3v-4l2-2h1zl-1 1h-3v-1q0-1 0 0v-1q0-1 0 0h2zl-1 1q-1 0 0 0t-1 0-1 0v-2h2zl-1 1h-2v-4q0-2 2-2h3l2 3v11h-1v1h-1l-1 1q-1 0 0 0l-1-1h-1v-1h-1v-2l-1-3v-5h1v-1h1zm58 6 1 2 1 4v2h-1l1 1v2h-2v-2l1-1 1 1v2h-1l-2-1q-2-1-2-3v-8h2zm66-54-2 1-4 2h-3l-2-2v-4l2-3 3-1h2l3 2 1 3-3 3-4 1h-7q-3 0-2-1h-1v-1h-1l-1-1v-3h1v-1h4l3-1 4-1 5 1h1l-1-1h2v1h1v3l-1 1h-1l-2 1-2 1-3 1h-4l-2-1-2-1-2-3-1-3 2-2 3-2 3-1h6l1 1 1 1v2l-1 1q-1 0 0 0l-1 1q-1 0 0 0 1-1 0 0t-3 1h-6l-2 1h-2l-1 1q-1 1-1-1t-1 0v-1l-1-1v-2h1v-1h12l3 1 2 1q-1 0 0 0h1v1l1 1v2h-1v1h-2l-2 1-4 1-4 1h-1l-1-1h-1l-1-1v-1q0-1 0 0v-2h1v-1h2l2-1h4l6 1 3 2h1v2zl-1-1v-1q0-1 0 0v-1h2v2zl-5-1h-5l-3 1-2 1-1-1h-1l-1-1v-1q0-1 0 0v-2h1v-1h5l3-1 4-1h3v1l1 1v2h-1v1h-3l-2-1h-3l-3-1-3 1h-2l-1-1h-1v-1l-1-1v-2h1v-1h2l1-1h2q2 1 3-1l3 1 3-1 2-1 1 1 1 1v2l-1 1q-1 0 0 0l-1 1h-4l-3 1q-2 1-2-1h1l1 1h3l3-1 3-1h3v1h1v3l-1 1h-1l-2-1q-2-1 0 0v1h-2l-3 1h-3l-4 1h-3l-1-1v-3h1v-1h2l1 1 3 1h6v2h-1l3-2h4v3zm-11 59 1 2 1 2 1 3-1 3v4h-1v1l-1-1q0-1 0 0h-1v-1h1v-1h2v2h-1v1h-1v-1q0-1 0 0h-1l-1-2-2-2v-4l1-3v-3l1-1q1 0 0 0h2q1 0 0 0zm49-69 1-1 3-2 3-1q2 0 1-1h1v1h1l1 1v3h-1v1h-1l-2 1h-2l-3 1-2 1-3-1q-2-1-1-3 0-3 2-4h15-1 1q1-1 0 0t1 1l1 1v2h-1v1h-1v1h-2l-3 1h-11v-1h-1v-1l-1-1q-1-1 0 0t0-1l1-1q0-1 0 0l1-1h1l3-1 3-1h3l5 1q3 0 3 3t-2 4-3 1-2 0h-3l-2 1v2h-1l-1 1-1-1h-1v-6zv1h1v1l-1 1h-2v-2zv1h1v3l1 2v1h-1l-1 1-1-1h-1v-6l2-2 4-1h5q2-1 2 1-1 2-3 2h-4l-3 1h-2l-2 1h-1v-1h-1v-1l-1-1v-1l1-1 1-1h10l3-1h3q0-1 0 0t1 1l1 1v2h-1v1h-1v1h-14q-1 1-1-2l1-2 4-1 3-1 2-1h1v1h1l1 1v2q0 1 0 0t0 1-1 0v1h-3l-4 1-2 1h-2v-2zm6 63v2l1 3v7h-2v-1h-1l1-1 1-1v1h1v1q0 1 0 0t-1 1h-1v-1h-1v-1h1v-1h1v1h1v2-1q0-1 0 0t0 1h-2v-1h-1l-2-1-2-2v-3l1-3 1-2v-2h1q1 0 0 0t1 0 1 0v1zm41-72 3-1h9l1 1v1h1v2h-1v1q0 1 0 0h-2l-1 1-2 2h-3l-5 1h-4l-2-1-2-1q-1-1 0 0h-1v-2q0-1 0 0v-2h1v-1h4zl4-1h4l1 1v2q0 1 0 0v1l-1 1h-11l-2-1 1-2 2-1 4-1h7v4h-1v1h-1l-1-1h-2l-2 1h-2l-3 1h-2l-1 1-1-1h-1v-1l-1-1v-1l1-1 1-1q1 0 0 0t1-1l2 1 3 2 1 2h1v3h-1v1h-3l1-4zv2q0 1 0 0v1h-1l-1-1v-2zv2l-1 1-1 1h1v3h-1v1h-3l-1-1-2-1-1-1h-1v-1l-1-1v-1l1-1 1-1q1 0 0 0t1-1v1q0 1 0 0l3-1 2-1h6l2 1h1q1 0 0 0t1 0 0 1v3h-1v1h-4l-3 1-4 1h-3l-2-2-1-3 2-2 3-1h5l3 1h4l1 1v2q0 1 0 0v1l-1 1h-3l-2 1h-4l-3 1-2 1-1-1h-1v-2q0-1 0 0v-2h1v-1h3l1 1h6l4-1 4-1 1-1h1l1 1v1h1v2h-1v1q0 1 0 0h-5l-5-1h-4l-1-1v-1q0-1 0 0l1-1zm2 65h1l3 1 1 1 1 2 1 1v1l-1 1v1h-4v-1h-1v-1l-1-2-2-1v-2h1v-1q0-1 0 0zh1v1h-1v1h-2v-2l1-1q0-1 0 0zl3 2 4 2v1l-1 1v1h-4v-1h-1v-2l-1-1-1-1h-1v-3h2zm38-73 2 1 3 2v1h1v2h-1v1h-1v1h-2v-1q1-1-1-2t-1-1l-1 1v-2l3-2h1l-1 2h-1l2-1h4l1 1q-1 1 0 0l2-1h1v1h1v2l-1 1h-1v1h-1l-2-1h-7q-2 0-3-2 0-2 2-2t5 0 3 0l1 1q1 2-1 2h-6l-3-1q-2 0-1-1h10l2-1 1 1-3 2h-9l-2-2v-1l1 1 1 1h1l1 1q1 1 0 0t0 1v1h-1v1h-1v-8zv1h-1v1h-1v-1h-1v-1l1-1q1 0 0 0zh1v1l-2 1-1 1h1l1 1q1 1 0 0t0 1v1h-1v1h-4l-3-3v-4l4-2h11l4 2q2 0 2 3 0 2-2 2t-4 2h-6l-3 1-3-1-3-2-1-3 1-3 4-2h8l3 1 3 1 2 1v3l-2 3-3 1h-9l-3-1-2-3 1-4h10l4 1 2 1h1v1h1v2l-1 1h-1v1h-1l1-1h-1l-6 1h-3l-3-1-2-2v-3l1-2 3-1 3-1 3 1 2 1v3l-3 3-2 2-3 2-3-2q-2-2-1-3v-3l1-2 3-2 3 1 2 3 1 2v1h1v2h-1v1h-1v1h-2v-1h-1l-1-3-2-2q0-1 0 0v-2h2zm7 78v2l1 2-1 1v1h-4v-1l-1-1 1-1v-3l-2-4-1-2-1-1 1-1q1-1 0 0v-1h1l1-1h1l1 1 1 1v1l-3 1h-3v-1l1-1 1-1h3q1 0 0 0l1 1v1l1 2v4l-1 2v1l-1 1-1 1h-2v-1h-1v-2l1-1 2-2 3-1h1l1 1-1 1h-2v-2h2l1 1v1h-1l-1 1-1 2-1 1-1 1h-2v-1h-1v-7l-1-2v-1l1-1 1-1h3q1 0 0 0l1 1v1q1 1-3 1l-3-1 1-1q1-1 0 0v-1h1l1-1h1l1 1 1 1v1-1 1l2 3v3l1 3v2l-1 1v1h-4v-1l-1-1v-2l1-3 1-2 1-1h3v3zm5 134v-2l1-3h1v-1h2l1 1v1h1v2l-1-2q0-2 1 0t2 0h2l1 1v3h-1v1h-4l-2-2v-3q0-2 2-2t1 0h1l1 1q1 0 0 0v3h-2l1-1h2l1 2-1 4v4l-1 3v2l1 2v3h-3v-1l1-1h2v1q0 1 0 0v1h-2l-1-1-1-2-1-4v-3l1-4-1-3 1-4 1-2h1l1 1q1 0 0 0v3h-2q0 1 0 0 1 0 0 0v-1q1-2 2-1h1l1 1v3h-1v1h-4l-2-1-3-2q-2-1 0-3h1v-1h2l1 1v1h1v2l-2 2-1 2h-1q-1 0 0 0l-1 1v-1h-1v-1z"/><path fill="#1e1e1e" d="M422 328v1l1 3v3l1 3 1 3v9l-1 2v1h-2l-1-1 1-1h2v1q0 1 0 0v1h-1q-1 0 0 0h-1l-1-1 1-1h2v2h-2l-1-1v-2l-1-4v-3l-1-3-1-3v-8l1-2 1-1h2v1z"/><path fill="#1e1e1e" d="M424 351v1l-2 2h-3l-2-2v-5l1-3v-3l-2-4-2-4v-2l-1-3 1-2v-2q0-1 0 0t1-1l1-1q1 0 0 0h2v1h1v2l-1 4-1 3-1 1h-2v-2h2l1 1-1 1h-2v-9l1-1 1-1q1 0 0 0h2v1h1v7l2 5 1 3v8l-1 3v1l1-1h1q1 0 0 0h2v2zM74 512l1 1v2l-1 1-1 1h-2l-1-1-1-1v-2l1-1 1-1h2zv2l-1 1-1 1h-2l-1-1-1-1v-3h1v-1h3z"/><path fill="#1e1e1e" d="m72 513-2 2-3 3-2 1h-1v1h-3v-1h-1v-1h2l2 1h-1v1h-2v-1q0-1 0 0t-1 0 0-1l1-1h2q2 0 2 2l2 1 2 1 2 1h6l3-1q2-1 0-1l-3-2-3-2-2-1zh-1v-1l-1-1v-1l1-1 1-1h1l1 2v3h-1l-1 1h-1v-1h-1l-1-1v-2h1v-1l2 2 2 2h-1l-1 1-1-1h-1v-2q0-1 0 0v-2l2 2-1 4q-2 0 0 0h2l3 1 3 2v3h-3v-1h-1l1-1q1-1 0 0t-2 1-2 1l-2 1-2-1q-1-1 1-2t4-1l4-1 2-1 2-1 1-1h1v-1h1v1h1l1 1v1l-2 1-3 2-5 1h-3l-1-1 1-1h2v2h-3v-1l1-1h2v2h-2l-1-1 1-1 1-2 2-2 2-1h4q2 0 1 1l-2 1 1-1h1v-1h1v1h1l1 1v1l-1 2-2 1-2 1-3 1-3 1-4 2h-3q-2 0-2-2v-4l3-1 3-1 2-1 4 1q2 1 1 2t0 1 0 1v1h-3v-1h-1 1l-2-1h-5q-2 0-3-2-2-1-1-3t2-2l2-2q1-1 3 1l2 2h-1l-1 1-1-1h-1v-2q0-1 0 0v-2l2 2 1 2-1 1h-1v-1h-1l-1-1v-2h1v-1h1l1 2zh-1v-1l-1-1v-1l1-1 1-1h1l1 1 2 1 3 2 3 2 2 1 3 3q1 2-1 3l-3 3-2 1-3 1h-3l-3-1h-2l-2-1-2-1-2-3v-2h1-1v1h-2v-1q0-1 0 0t-1 0 0-1h2l2 1v1h-3v-1h-1v-1h1l2-2 2-1 3-3 3-1h2v2zm73 3-3 2-5 3-3 1h-2v-1h-1v-2h1v-1l1 1h3l4-1h16q2 0 0-1t-3 0h-3l-2 1q-1 1-1-1l1-2 2-1h2v1h1v1q0 1 0 0v2q0 1 0 0t-1 1h-1l-2 1-3 2-4 1-4 1-1 1h-3v-1h-1v-3q0-1 0 0l1-1q0-1 0 0h5l3-1 4-1 4-1h3l2-1q-1 1 0 0h1v1h1q2-1 0 0v3l-1 1h-1l-4 1-3 1-2 1h-2q-1 0 0 0h-2v-1h-1v-3h1v-1h1v-5h1v-1h1v1h1v2zv-1h-1v-1h1v-1h1v1h1v1l-1 4-1 5q-1 0 0 0h-2v-1h-1v-3h1v-1h2l2-1 3-1h4l2-1h1v1h1q2-1 0 0v3l-1 1-1-1-1 1-3 1-4 1-4 1-4 1h-5v-1h-1v-3q0-1 0 0l1-1q0-1 0 0h1l2-1 5-1 5-2 3-1 1-1h1v1h1v1q0 1 0 0v2q0 1 0 0t-1 1h-7l-2-2v-2l1-2 3-1h9l3 1q2 1 2 3t0 4l-2 2-4 1h-18l-2-1h-3v-1h-1v-2h1v-1h1l2-1 5-2 4-2h2v3zm92 5h-2l-3 2-4 1q-3 0-4 2l-2 1h-1l-1 1v-1h-2v-1l-1-1v-1l1-1h2l2-1h3l3-1h13q2 0 2 2v2l-2-1-3-1h-2l-2-1v-2l2-1 2-1 2-1h2v1h1v3h-8l-3 1-3-1h-1l-1-1v-2h2v3h-1l-1-1v-2h2v2l-1 1-1-1v-2h1l2-1 3-2h4q2 0 3 2l1 1-1-1h2v1h1v3h-1l-1 1-1 1-3 1-3 1h-3l-2-2-1-2 2-2 2-1 4-1 3 1 2 1 3 1 2 3-1 3h-12l-4 1h-8l-1 1v-1h-2v-1l-1-1v-1l1-1 1-1 2-1 3-1 3-1 2-1 2-1h7q1 0 0 0l1 1q1 0 0 0v1l-1 1zm71-7-4 1-7 3h-3l-3 1-2 1h-2v-1h-1l-1-1v-1l1-1v-1h3l3 1 3 1 4 1 3 1 3 2h3l2-1 3-1q2 0-1 1h-2l-3-1-2-2-2-1h-3l-2-1-1-1q1-1 2 1l1 1v1q0 1 0 0t0 1h-1v1h-1v-1l-1-1h1v-1h1l1 1q0 1 0 0v1h-1v1h-1v-1h-2l-3-2v-3l2-2 3-1 4 1 4 1zl2 2-1 1 2-2 3 1q2 0 2 2l1 3q0 2-2 3t-2 2-3 1-2 1l-3-1h-2l-3-1-3-2-3-1-2-1-2-1h-3v-1h-1l-1-1v-1l1-1v-1h2-1q-1 1 0 0l3-1 2-1 4-1 7-1 5-1h1v1h1v2h-1zm53-3h-1l-3 1-3 2-3 1 1 2h5l3-1 2 1q1 1 0 0l-1-1q0-2-2 0l-1 1h-1l-1-1-1-1v-3h1v-1h3l3 1v2l-2 1h-4v3h-2v-2h3v1l-1 1h-2v-2l1-1h1v1h1v1q0 1 0 0h-1v1h-1 1-2v-2h-2q-2 0 0-3 1-3 3-3l3-1 2-1h2l3 1q2 1 1 3 1 2-1 3t-3 2h-5l-1-1-1-1v-3h1v-1h2-1q-1 1 0 0zl3 1 2 1 2 2 1 2-1 3-3 2-2 1h-11l-3-1-2-2-1-3 1-2 1-2 2-2 2-1 4-2 4-1 3 1 1 2v1h1-1v1h-1v1z"/><path fill="#1e1e1e" d="M307 520h-2l-2 1-2 1-1 1h-1v-1h-1v-3h1l3-2 3-1 2-1h1v1h1v2q0 1 0 0v1h-1zl-2 1-2 1-1 1h-1l-1-1h-1v-1l-1-1 1-1v-1q0-1 0 0h2l3-1h2q1 0 0 0h1v2zh-1v-2h2v1q0 1 0 0v1l-2 2-2 1-1 1h-1l-1-1h-1v-1l-1-1 1-1v-1q0-1 0 0l1-1v-1l2-1h6v1h1v2q0 1 0 0v1h-1zl-2 1-2 1-2 1h-1v-1h-1v-3h1l1-1h1l3-1 2-1h1v1h1v1q0 1 0 0v1h-1zm106-9-2 1-2 2-3 1-2 1h-1v-1h4l3 1h4l4-1q2-1 2 1t-1 1l-2-1-3-1-2-1q-1-1 1-1t0-1zq1-2 3 0t3 1v1h1v2l-1 1-1 1q-1 0 0 0h-2q-1 0 0 0l-2-4-2-3v-2h2v2zl-1-1v-2h1q1 0 0 0h1v1l2 1 3 2v1h1v2l-1 1-1 1q-1 0 0 0h-2q-1 0 0 0l-2-1-4-2-2-2 1-4q1-2 3-2h4l4 1 2 3 1 2-1 2-1 2-3 2-3 1-5-1-3-2 1-3 2-3 2-1h7l3 2 2 1 1 3v4l-2 1-2 1h-4l-4 1h-5l-4-1-3-1-2-3 1-3 2-3 3-1 3-2h6v1h1l-1 1zm52 2-1 1v1h7l2-1-1-2h-5l-2-1q-2 0 0-1h3q2-1 3 1 1 1-1 1l-3-1-2 1zq-1 0 0 0h-1v-2 1-2h2v2zl-1-1v-2h1l1 1v1zq-1 0 0 0h-1v-3q0-2 2-3l3-1h3l3 3v3l-1 1-2 2-3 1-3 1-3-1q-2-1-2-3l1-5 3-2 3-1h6l2 2 3 2q2 2 1 4v4q0 2-3 2t-4 1l-3 1h-5l-3-1-3-2v-3l1-3 2-2h2l1-1 1 1q1 1 0 0h1v1q0 1 0 0v1zm51-1h-1l-3 1-2 1q-1 1 1 2h7l3-1v-2l-2-2-1 1zv-1h1q1 0 0 0l1-1v1h1v2h-2zv-1h1q1 0 0 0t0-1 1 0v1h1v1l-1 1zv-1h1q1 0 0 0l-2-2v-2l4-1h2l4 1 3 3 1 2 1 3-1 2-2 3-3 1-3 1-3 1h-7l-3-2-2-1-1-4v-3l2-2 3-1 3-1h4l1 1h1v3h-1z"/><path fill="#e03131" d="m241 49-1 2-7 12-8 12-2 4v1h-2v-2l1-1h1v3h-2v-2l2-4q1-4 7-13l7-11 2-2v-1h1q1 0 0 0t1 0v1q0 1 0 0z"/><path fill="#e03131" d="m252 39-1 1-2 3-2 3-3 5-4 5-3 5-3 5-3 5-1 3-2 4v2h-1v1h-1v-1h-1v-1h1v-1h2v2h-1v1h-1v-1h-1v-3l1-5 2-3 2-5 3-5 4-5 4-5 3-5 3-4 2-2 1-1 1-1v1h1z"/><path fill="#e03131" d="m254 39-1 2-4 7-5 10-4 6-2 6-3 5-1 5-2 5v5h-2v-1h-1q-1 1 0 0t0-1h1v-1h1v1h1v2h-2l-1-1v-4l1-6 1-5 3-6 3-6 3-6 6-9 4-8 1-1 1-1h1l1 1zm-3 22-1 3-2 5-2 4-2 4-2 4-1 3-1 3-1 1v1h-2v-2h2v2q0 1 0 0t-1 0h-1v-7l2-3 1-3 2-4 3-4q2-2 2-6l2-3h2q1 0 0 0t0 1zm-25 26-1 2-2 3-1 3-2 4-1 5-1 5-1 4-1 2v1h-2v-1h-1q-1 0 0 0t0-1h1q1 0 0 0v-1h1v1h1v2h-2v-1h-1v-3l1-4 1-5 1-5 2-4 2-4 2-3 1-2h1v-1h1l1 1v1q0 1 0 0t0 1"/><path fill="#e03131" d="M228 90v2l-2 3-1 3-2 5-1 4-2 5-1 5v3l-1 4v3h-2l-1-1 1-1h2v2q0 1 0 0h-2l-1-1v-3l-1-4 1-3 1-5 2-5 1-5 2-5 2-3 2-3 1-2h2v1h1zm3 7v-3h2q1 0 0 0h1v1q0 1 0 0h1l-1 3-1 4-2 6-3 9-2 4v1h-2v-1h-1v-1h1q1 0 0 0v-1h1v1h1v1l-1 1q-1 0 0 0h-1v-1h-1v-1l1-4 3-9 2-7zl1-2v-1h2q1 0 0 0h1v1q0 1 0 0h1l-1 2v1q1 0 0 0v1h-2l-1-1z"/><path fill="#e03131" d="m238 100-1 2-2 4-1 4-1 3-2 4-1 4-1 5-1 2v1h-2l-1-1 1-1h2q1 0 0 0v2q0 1 0 0t-1 0-1 0h-1v-4l1-5 1-4 1-4 2-4 2-4 2-4 1-2h3zq0 1 0 0m-89 44-3 1-5 1h-2l-3 1h-4l-1 1h-2v-3h1l1 1v2h-2v-2l2-2 4-2 3-1h12v3zq-1 0 0 0"/><path fill="#e03131" d="m164 146-2-1h-14l-4 1-3 1-3 2-3 2v2h-1l-1-1v-2l1 1h1v1l-1 1-1-1v-2h2v2l-1 1-1-1h1l1 1h-1l-1-1q0-1 0 0t0-1v-3l3-3 4-2 3-1 5-1h12l3 1 2 1 1 1v2z"/><path fill="#e03131" d="m164 135 1-1 1-1v-1h2q1 0 0 0v1h1v2l-2 1-2 1-4 2-5 4-6 4-4 3-3 3-3 2-3 2-1 1h-1v1h-1v-1h-1v-1h1v-1h2v2l-1 1h-1v-1h-1v-1l1-3 3-3 3-3 3-2 4-3 6-4 6-4 4-2h3v-1h2q1 0 0 0v1h1v2l-1 1-2 1-1 1v-1h-1zm11 11-2 2-5 3-4 2-6 3-5 3-6 3-6 3-5 2-4 2-2 1h-2v-2q0-1 0 0l1-1h1v1h1v1h-1v1h-1q-1 0 0 0t-1-1v-1l2-2 4-3 4-3 6-3 6-3 6-3 6-2 4-2 4-2 3-2h1q1 0 0 0t1 0v1h1q1 0 0 0v1z"/><path fill="#e03131" d="m196 150-4 1-6 2-6 2-8 2-8 2-8 3-8 4-6 3-5 1-1 1 1 2h-1l-1-1v-2h2v2l-1 1-1-1v-2h2v2l-1 1h1-1l-1-1v-2h-2q-2 0 1-2l5-4 7-4 8-3 9-3 8-3 7-1 7-1 7-2 3-1h1v1h1v1q0 1 0 0v1z"/><path fill="#e03131" d="m194 146-1-1h-2l-3 2-4 4-3 4q-1 3-4 4l-3 4-4 5-1 3-1 1h-2v-2l1-1h1v1h1v1h-1v1h-2v-1l1-5 3-6 3-5 4-4 4-4 5-3 4-2h4l2 1v3h-1q-1 0 0 0zm17 0-2 1-3 2-4 5-5 7-5 7-5 7-6 8-5 5v1h-1v-1h-1v-1l1-1h1v1h1v1h-1v1h-1l-1-1v-1l4-6 5-9 5-7 5-7 6-7 5-5 3-3 1-1h3v2q0 1 0 0v1q0 1 0 0zm5 56-1 3-4 6-5 9-4 7-2 2h-2v-2h2l1 1q0 1 0 0v1h-3q-1 0 0 0t0-1v-3l4-7 5-10 4-6 2-2 1-1h1l1 1 1 1zq0 1 0 0m-1 9-1 3-2 4-2 6-2 3-1 3-1 3-1 3-1 3-1 1h-1v-1q1-1 0 0t-1 0v-1h1v-1h1l1 1v1h-1v1h-1v-1h-1v-1l1-2 1-5 2-5 2-4 2-5 2-4 1-3 1-2h2v1zm2 14-3 4-4 9-3 7-1 3v1h1v1h-1v1h-1v-1h-1v-2h2v1h1q1-1 0 0v1h-1v1h-1v-1l-1-5 2-10 4-8 3-4v-1h3l1 1z"/><path fill="#e03131" d="m217 234-1 4-2 6-2 6-2 4-1 3-1 3-1 1v1q0 1 0 0t0 1h-1l-1-1v-2h2v1q0 1 0 0t0 1l-1 1-1-1-1-3v-4l1-3 2-4 2-6 3-6 1-4h1q2 0 0 0t1-1h1l1 1q1 1 0 0t0 1z"/><path fill="#e03131" d="m217 250-1 2-1 4-3 7-3 6-2 4h-1 1v1l-1 1h-2v-2h1q1 0 0 0t1 0l1 1-1 1h-1l-1-2v-6l3-7 3-6 2-4 1-2q0-1 0 0v-1h3v1h1zm7 8-1 4-4 7-4 7-3 6-1 1h-1v1h-2v-2q0-1 0 0l1-1q0-1 0 0h1v1q-1 1 0 0t1 0 0 1h-1v1h-1l-1-1v-3l2-6 4-7 4-7 3-4 1-1q0-1 0 0h1l1 1 1 1zq0 1 0 0m-11 43-2 5-4 8-3 5-1 1v1h-2v-2q0-1 0 0h2v2h-2v-1q0-1 0 0v-3l2-5 4-8 3-5 1-1h1v1h1zm4 8-1 2-2 5-2 5-1 3-1 3-1 4-1 2h-2l-1-1 1-1h2v2h-2l-1-1 1-1-1-2v-3l1-3 2-4 2-5 3-5 1-2h1v-1h1v1h1v1q0 1 0 0t0 1m0 16-1 1-2 5-3 6-2 6-2 5v4l-1 2q0 1 0 0l-1 1h-1v-1h-1v-1h1v-1h1l1 1v1h-1v1l-1-1q0-1 0 0h-1v-7l2-5 2-6 3-7 3-5 1-1 1-1h1l1 1q1 0 0 0zm-1 34-1 2-2 4-2 4-1 3v3l-1 2-1 1v1h-2l-1-1 1-1h2v2h-2l-1-1v-5l1-2 1-4 2-4 2-4 1-2 1-1h2l1 1z"/><path fill="#e03131" d="m214 371-2 5-3 8-1 4-2 3-1 2v1h-2v-1q0-1 0 0v-1l1-1h1v3h-2v-8l2-4 3-8 3-5 1-1h1l1 1zq0 1 0 0m-2 19-1 2-1 4-2 4-2 4-1 4-1 2v2h-1v1h-1v-1q0-1 0 0h-1v-1q0-1 0 0l1-1h1l1 1v1h-1v1h-1v-1h-1v-1h1v-1h2v2h-1 1q2 0 0 0h-1v1h-1v-1q0-1 0 0h-1v-1q0-1 0 0v-2l-1-3 2-4 2-4 2-4 2-4 1-2 1-1q0-1 0 0h1l1 1 1 1zq0 1 0 0m-3 21-1 3-2 6-1 4v1q1 0 0 0v1h-1q-1 0 0 0v1h-1v-1h-1v-2h2l1 1q1 0 0 0v1h-1v1h-1q-1 0 0 0v-1h-1v-8l2-6 1-3h1v-1h3z"/><path fill="#e03131" d="m212 419-1 2-2 5-1 5-1 3-1 2h-1v1h-1v-1q0-1 0 0h-1v-1h1l2-1v2l-1 1h-1v-1h-1v-1h1v-1h1l1 1v1h-1v1q1 1 0 0v-1h1-1v1h-1v-1q0-1 0 0h-1v-6l2-5 2-6 1-2 1-1h2l1 1v1zm3 35-1 2-4 10-6 14-4 7-1 2-1 1q0 1 0 0h-2v-2l1-1h1v1q-1 1 0 0h1v1h-1v1h-1l-1-1v-3l3-8 6-14 5-10 2-3h3v2zm0 16v2l-1 3-2 4-1 4-2 4-1 3-2 4-2 4-2 2h-1v1h-1v-1h-1v-1q0-1 0 0l1-1h2v2q0 1 0 0l-1 1h-1v-1h-1v-1l1-3 2-4 1-4 2-3 1-4 2-4 2-3 2-4 1-1v-1h2zm-2 27v1l-1 3-2 4-3 5-2 5-3 4-2 3h-2v-1h-1v-1h1v-1h1q1 0 0 0t0 1h1v1l-1 1h-1v-1h-1v-1h1l1-3 2-4 2-5 3-5 2-4 1-2 1-2v-1h1q1 0 0 0h2zm-173 9-6 7-8 10-3 3h-1v-1h-1v-1h1v-1h1l1 1q1 0 0 0v2h-2l-1-1v-1h1l2-3 8-10 6-7h2zm11 2-1 2-2 3-3 3-3 2-3 3-4 3-3 1h-2v-2h1q1 0 0 0t1 0l1 1-1 1h-2v-2q0-1 0 0h1l2-2 3-3 3-3 3-2 3-3 2-2 2-2h2l1 1zm11-1-1 1-3 3-4 3-6 6-6 6-3 3h-1q-1 0 0 0t-1 0v-2h2v2h-2v-2l2-3 6-7 6-6 4-3 4-3 2-1h1l1 1v1zm18-2-3 3-4 4-3 3-4 3-2 1v1h-1v-1h-1v-1l1-1q0-1 0 0t1 0h1v2l-1 1h-1v-1h-1v-1h1v-1l1-1 3-4 3-3 4-4 4-3 1-1h2q1 0 0 0t1 0v3zm23 2h-2l-4 2-3 3-6 5-2 3-1 1h-1v-1h-1v-1q0-1 0 0t1 0 0-1h2v2h-1v1h-1v-1q0-1 0 0h-1v-1h1v-1l2-3 5-6 4-4 5-2h4l1 1v1l-1 1zm9-3-1 2-2 2-2 3-2 3-3 3-4 3-3 2-1 1h-1v-1h-1q-1 0 0 0v-1l1-1h1v1h1v1h-1v1h-1l-1-1v-2h1l1-1 2-2 3-2 3-3 2-3 3-3 2-3 1-1h2l1 1zm7 7-2 1-5 4-4 5-3 3-2 1q-1 0 0 0t-1 0-1-1v-1h3v2h-1q-1 0 0 0t-1 0l-1-1 1-1q1-1 0 0h2v2h-1q1 0 0 0t-1 0-1-1v-1h1l1-2 2-3 5-5 5-4 2-1h2v1h1v1h-1zm12-2-2 2-4 4-4 3-3 3-4 3-2 2h-1l-1-1q0-1 0 0v-1h3v1h-1v1h-1l-1-1v-1h1v-1h1v1h1v1h-1v1h-1 1-1l-1-1q0-1 0 0v-1l2-3 3-3 3-3 4-3 4-4 2-2h1v-1l1 1h1z"/><path fill="#e03131" d="m134 509-4 4-4 5-3 3q-2 2-3 1t-3 1h-1v-2l1-1h1v3h-2v-2l2-2 2-2 3-2 4-4 3-3 2-2 2-1h1q1 0 0 0h1v2z"/><path fill="#e03131" d="m143 506-1 1-2 1-3 2-3 3-3 4-3 3-3 2-2 1h-1l-1-1v-1h3v2h-2l-1-1 1-1 1-1 2-3 3-3 3-4 4-3 3-2 2-1 1-1h2v1h1v1zm27-2-3 3-7 5-4 2v1h-1l-1-1q-1 0 0 0t0-1v-1h2l1 1v1h-1v1h-1v-1h-1v-2l4-3 6-6 4-2h2zq0 1 0 0m18 4-2 1-5 4-4 4-3 3-2 1-1 1v1h-1v-1h-1v-1h1l1-1h1v2h-1v1h-1v-1h-1v-1h1v-1h1l1 1v1h-1v1-1q1 0 0 0v1h-1v-1h-1v-1h1v-2q-1-2 1-3l3-3 5-4 5-3 2-1h2zm6 3-1 1-3 3-3 3-4 2q-1 2-3 2l-2 1-1 1q0 1 0 0l-1 1h-2v-2h1q1 0 0 0h1l1 1v1h-3q-1 0 0 0v-1l2-2 2-3 3-2 3-2 3-3 4-3 1-1h3v2zm13-2-1 1-3 2-5 4-6 5-3 3-2 1h-1q-1 0 0 0h-1v-2h2v2h-1q-1 0 0 0t-1 0v-2h2q1 0 0 0t0 1v1h-1 1-1q-1 0 0 0h-1v-2l1-2 3-4 6-4 5-5 3-2h1l1-1h1l1 1zm7 2-1 1-2 3-4 4-6 4-2 2h-1v-1h-1v-1h1v-1h2v2h-1v1h-1v-1q1-1 0 0l-1-1h1v-1l2-1 5-4 4-3 2-3 1-2h1q1 0 0 0h2v2zm-9 34-8 3-12 3h-4v-2h2v2h-1q-1 0 0 0h-1v-2h1l3-1 11-3 8-2h2v2zm-7-3-1 1-3 1-3 1-6 2-6 2-4 1-3 1h-2q-1 1-1-1t-1-1-1 0v-1q0-1 0 0v-1h2v2h-1q-1 0 0 0h-1v-1q0-1 0 0v-1h1q1 0 0 0t1 0v2h-2v-1q0-1 0 0v-1h4l3-1 3-1 7-2 5-2 4-1 3-1h3v1l1 1h-1v1zm-14-2-3 1-6 2-4 1-5 2-5 1-4 1-5 2h-8v-2q0-1 0 0t1-1 1 0v1h1v1h-1v1h-1l-1-1v-1h1v-1h2l4-2 4-1 5-1 5-1q3 0 4-2l5-1 6-1 4-1h1v1h1v1h-1v1z"/><path fill="#e03131" d="m158 543-2 1-5 2-5 1-5 1-5 1h-8l-1-1 1-1q1-1 0 0t1 0h1v2q0 1 0 0h-2l-1-1q-1-1 0 0t1-1h1l2-1 4-2 5-1 5-1 5-1 5-1 3-1h1v1h1v3h-1q-1-1 0 0z"/><path fill="#e03131" d="M141 544h-1l-4 1-5 1-5 2-6 1-4 1-5 1q-3 0-2-1h-1v-2h2v1h1q1-1 0 0v1h-1q-1 0 0 0v1h-1v-1h-1v-2h2l1-1 4-1 4-1 6-2 6-1 4-1h7l1 1v1q0 1 0 0v1h-1z"/><path fill="#e03131" d="m130 543-3 1-7 2-5 1-5 1-3 1-3 1-4 1h-2l-1-1v-2h2v2l-1 1-1-1v-2q0-1 0 0h1l1-1 3-1 4-1 3-1 4-1 7-2 6-1h4q1 0 0 0h1v2zm-21 0-4 1-9 3-8 2-4 1-4 1h-3v-2h2v2h-2v-2h1l2-1 3-2 4-1 8-2 9-2 4-1h2v3zm-11-3-2 1-5 1-6 2-5 2-5 1-3 1-3 1h-6v-2h2v2h-2v-2h2l1-1h2l3-2 3-1 5-1 5-1 6-2 5-2h3l1 1v2zq-1-1 0 0m-19 0-1 1-4 1-5 2-3 1-4 2-5 1h-7v-1q1-1 0 0t0-1 1-1h1v1h1v1h-1v1h-1l-1-1v-1h1v-1h2l3-1 4-1 4-2 4-1 4-1 2-1 3-1h3v3zm-14-1-1 1-4 2-5 1-5 2-3 1h-7v-2l1-1h1v1h1v1h-1v1h-1l-1-1q0-1 0 0t0-1h1v-1h2l2-1 3-1 5-2 6-1 3-1 2-1h1v1h1v2zm-14 0h-2l-4 2h-3q-2-1-1-3t5-2 5 0h1v2zv-1h-1v-1h1v-1h1l1 1v1zl-4-1-3-1 4-1h4v1q0 1 0 0v2z"/><path fill="#e03131" d="m47 533-1 1-4 2-3 2-3 1-1 1-1 1-1-1v-2h2v2l-1 1q-1 1 0 0l-1-1v-2l1-1 3-2 4-2 4-2h2q1 0 0 0h1v1q0 1 0 0zm165 6-5 1-8 3-5 2-3 2h-2v-1l1-1h2v2h-2l-1-1q0-1 0 0t1-1 1 0h1q1 0 0 0v2h-3v-1l1-1v-1l2-2 6-2 9-3h5q1 0 0 0h1v2zm16 2h-2l-3 1-3 1-3 2-4 1-3 1-4 2q-2 2-4 1l-2 1-1-1v-2h2v2l-1 1-1-1v-2h2v2l-1 1q1 0 0 0l-1-1v-2l2-1 3-2 4-2 4-1 3-2 4-1 3-1 4-1h3l1 1v2h-1zm19-1-2 1-3 1-5 2-6 2-5 2-4 1-3 1h-3v-1h-1v-1h1q1 0 0 0t0-1 1 0v1h1v1l-1 1q-1 0 0 0h-1v-1h-1v-1h1l1-1q1-2 3-2l4-2 5-2 7-2 5-2h6l1 1v2zq-1 0 0 0"/><path fill="#e03131" d="m251 543-2 1-4 1-4 2-4 1-4 2-4 2-4 1-4 1h-2l-1-1v-1h1v-1h1v1h1v1h-1v1q1 1 0 0h-2v-2h1l1-2 3-2 4-1 4-2 4-2 5-1 4-1 4-1h4v2zm19 1-5 2-9 3-6 2-5 3-4 1-3 2h-4q-1 0 0 0v-2h3v1l-1 1h-1q-1 0 0 0h-1v-2l2-1 3-3 4-2 6-2 6-2 8-3 6-1h1v1h1v2zm29-2-2 1-7 3-9 4-7 3-5 2-5 2-2 1h-2v-1h-1v-1h1q1 0 0 0t1-1v1h1v2h-2v-1h-1v-1h1v-1h1l1 1v2h-2v-1h-1v-1h1q1 0 0 0t0-1l2-2 5-2 5-2 7-3 9-4 8-2 2-1h2v3z"/><path fill="#e03131" d="m317 544-3 2-5 1-6 1-7 2-6 2-7 3-7 1-2 1h-2v-2h2v2h-2v-2l3-2 6-3 7-3 7-1 7-2 6-2 4-1h4l1-1h2v1l1 1-1 1q-1 1 0 0z"/><path fill="#e03131" d="m321 544-2 1-5 2-6 1q-4 1-5 3t-6 2l-5 3-6 2-3 1h-1v-1h-1v-1l1-1h2v2l-1 1h-1v-1q0-1 0 0h-1v-1h1v-1l3-2 5-3 5-3 6-2 6-2 6-2 5-1h3v1h1v2zq-1-1 0 0m22 0h-2l-4 2-6 2-7 2-6 2-6 3-5 2-5 1-2 1-1-1v-2h2v2l-1 1-1-1v-2h2v2l-1 1-1-1v-2l2-2q1-2 4-2t5-2 6-3l7-2 7-2 6-2 4-1h4v1q0 1 0 0l1 1-1 1z"/><path fill="#e03131" d="m360 542-2 1-5 1-7 3-8 3-6 2-5 3-5 2h-4v-2q0-1 0 0h3v1l-1 1q-1 1 0 0h-1q-1 0 0 0h-1v-2h1l1-2 4-2 6-3 6-3 9-3 7-2 5-1h4v1h1v1h-1v1z"/><path fill="#e03131" d="m372 540-2 1-5 1-6 3-5 2-5 2-6 2-5 3q-2 2-5 2t-3 1h-1v-1q0-1 0 0v-1h2v2q0 1 0 0t-1 0h-1v-2l2-2 5-3 5-3 6-3 6-2 4-2 7-2 5-1h3l1 1v2zm19-1-2 1-7 3-8 3-7 3-5 2-4 3-5 2-3 1q-1 1 0 0l-1-1v-2h2v2q0 1 0 0t0 1h-1l-1-1q-1-1 0 0v-2l2-2 4-3 5-3 5-2 7-3 8-3 8-2h4v3z"/><path fill="#e03131" d="M404 538h-2l-4 2-5 3-9 3-8 4-6 3-5 2h-4v-2h1q1 0 0 0h1v2h-2v-2l2-2 5-3 5-3 9-3 9-4 6-2 4-1 2-1h1l1 1v2zm21-1-3 2-5 3-7 2-6 3-7 3-6 3-6 2-4 1q-1 1 0 0t-1 0-1 0v-2h2l1 1-1 1h-2v-1q0-1 0 0v-1l4-3 6-3 6-3 7-3 7-3 6-2 5-2 3-1 2-1h2v1q0 1 0 0t0 1zm16 2-2 2-6 3-4 2-5 2-5 2-4 2h-3q-2 0-1 1t-1 0-1 0 0-1v-1h2q1 0 0 0v2q0 1 0 0h-2q-1 0 0 0v-1q0-1 0 0v-1l1-2 3-2 4-2 5-1 5-2 4-2 6-3 3-1h2v3zm25 4-2 1-5 3-6 3-6 2-5 3-5 1q-3 0-2 1t-1 0h-1v-2h1q1 0 0 0h1v2h-2v-2l2-2 5-3 5-3 6-2 6-2 5-2 3-2h1v1h1v3zm23-3-1 1-3 1-5 2-6 2-5 3-5 2-3 2-3 1-1 1h-2v-2h2v1q0 1 0 0v1h-2v-2l1-2 2-3 4-2 5-2 6-2 6-2 4-1 4-1q2 0 1-1h2v1q0 1 0 0v2z"/><path fill="#e03131" d="M494 544h-2l-5 2-5 2-4 2-3 2-3 1-1 1h-2v-2l1-1 1 1v2h-2v-1q0-1 0 0v-1l1-1 1 1v2h-1q1 0 0 0h-1v-6l3-2 4-1 4-2 6-2 6-1h2l1 1 1 1v1h-1z"/><path fill="#e03131" d="m505 542-3 2-4 2-5 2-3 1-4 2q-1 1-1-1t-1-1 2-1l2-1h1v1h1v2h-2v-1h-1v-1h1v-1h1l1 1v2h-1l-3 1q-2 2-4 1t0-3 2-3l3-1 5-2 4-2 5-1 3-1h1v1h1v1zq-1 0 0 0t0 1zm13-5 2-1 3-2 1-1h3v3l-1 1v1l-2 2-2 1h-1v1h-2l-1-1zl3 2 2 1v1h-2v-1h-1v-2h1v-1l-1 2q-1 2-2 1l-1-1v-1zq1 0 0 0v1h1v1l-1 1h-1v-1h-1v-1h1zl2 2 2 1v1h-2v-1h-1v-2h1v-1 5h-2l-1-1v-4zl2-1 3-2v-1h3v3l-1 1h-1l-4 2-2 1h-2v-1q0-1 0 0v-1z"/><path fill="#e03131" d="M533 537h-1l-4 2-5 3-10 6-11 7-4 3v1h-1v-1h-1v-1q0-1 0 0l1-1h1v1h1v1h-1v1h-1v-1h-1q-1 0 0 0v-1q0-1 0 0v-1l4-4q4-4 11-7l10-6 6-3 3-2h3v1h1v1z"/></svg>